<?xml version="1.0" encoding="utf-8"?>
<!-- Generator: Adobe Illustrator 20.0.0, SVG Export Plug-In . SVG Version: 6.00 Build 0)  -->
<svg version="1.1" xmlns="http://www.w3.org/2000/svg" xmlns:xlink="http://www.w3.org/1999/xlink" x="0px" y="0px"
	 viewBox="0 0 283.3 256" style="enable-background:new 0 0 283.3 256;" xml:space="preserve">
<style type="text/css">
	.st0{fill:#E1E1FF;}
	.st1{fill:#507EBC;}
	.st2{fill:#B0B0FF;}
	.st3{fill:#3F658E;}
	.st4{fill:#FFF0F2;}
	.st5{fill:#FFFFFF;}
	.st6{fill:#FFA50A;}
	.st7{fill:#FAB9AF;}
	.st8{fill:#4A77A8;}
	.st9{fill:#FA968C;}
	.st10{fill:#827DDC;}
	.st11{fill:#619DE0;}
	.st12{opacity:0.39;}
	.st13{opacity:0.21;}
	.st14{fill:#D2F0FF;}
	.st15{fill:#9797EF;}
	.st16{fill:#AFE6FF;}
	.st17{fill:#41378C;}
	.st18{fill:#5159BF;}
	.st19{fill:none;stroke:#4B5AAF;stroke-width:2.9615;stroke-miterlimit:10;}
	.st20{fill:none;stroke:#5046AF;stroke-width:2.9615;stroke-linecap:round;stroke-miterlimit:10;}
</style>
<g id="OBJECTS">
	<g>
		<g>
			<path class="st0" d="M173.5,57.6c-0.7,0-2.5-0.1-5.1-0.3c-18.1-1.2-35.6-6-51.9-14.2c-13.7-6.9-31.9-9.8-41.8-7.2
				c0,0-0.1,0-0.1,0c-3.6,1-7.2-1.2-8.2-4.8c-2.3-8.5-13.7-14.6-25.7-14.6c-14.4,0-26,8.1-26,18c0,4.2,2.1,8.1,5.6,11.1
				c9.9,8.7,15.4,21.4,14.2,34.6c-0.3,3.5-0.2,7,0.5,10.3c0.3,1.6,0.8,3.2,1.4,4.7C40.2,105,55.1,117,56,126
				c7,69.4,25.2,94.6,92,104.5c66.7,9.9,126.6-20.8,133.6-68.6C288.6,114.2,277.2,59,173.5,57.6z"/>
			<path class="st0" d="M91,7.2c-1.4-0.1-2.6-0.8-3.6-1.8c-2-2.1-5.1-3.4-8.5-3.4C72.8,1.9,68,6,68,11c0,5,4.9,9.1,10.9,9.1
				c3,0,5.6-1,7.6-2.6c1-0.8,2.3-1,3.5-0.9c2.6,0.3,5.2-1.8,5.2-4.7C95.2,9.4,93.3,7.4,91,7.2z"/>
			<ellipse class="st0" cx="101.3" cy="24.8" rx="3.5" ry="2.6"/>
			<ellipse class="st0" cx="234.2" cy="54.5" rx="7.5" ry="4.5"/>
			<circle class="st0" cx="245.9" cy="46.4" r="2.3"/>
		</g>
		<g>
			<path class="st1" d="M30.4,183c-0.7-5-1.7-12.9-6.6-19.1c-7.6-9.6-21.5-11.3-21.5-11.3S0.9,166.4,8.6,176c4.2,5.2,13,9,17.9,10.6
				c2.1,0.7,3.5,2.6,3.5,4.8c-0.5,33.4-5.6,49.4-5.6,49.4l4.9-0.6C33.6,204.1,31.4,189.9,30.4,183z"/>
			<path class="st1" d="M44.5,177.3c1.3-4.1,3.4-10.7,8.5-15.1c7.9-7,19.8-6.4,19.8-6.4s-0.9,11.9-8.8,18.9
				c-4.3,3.8-12.3,5.7-16.7,6.2c-1.9,0.3-3.4,1.7-3.7,3.6C39,212.8,41,227.1,41,227.1l-4.1-1.2C38.7,194.7,42.7,183.1,44.5,177.3z"
				/>
			<path class="st2" d="M37.7,155.6c1.1-5,2.8-12.9,8.2-18.7c8.5-9.1,22.5-9.7,22.5-9.7s0.4,14.1-8.2,23.1c-4.7,4.9-13.8,8-18.9,9.2
				c-2.2,0.5-3.8,2.4-3.9,4.6c-2.2,33.6,0.6,61,0.6,61l-4.9-1C31.8,187.5,36.2,162.6,37.7,155.6z"/>
			<path class="st2" d="M27.1,208.8c-0.4-2.5-1.4-4.9-2.9-7c-0.7-1-1.5-1.9-2.5-2.6c-4.3-3-10.2-2.1-10.2-2.1s1,5.9,5.2,8.9
				c2.5,1.8,5.6,2.2,7.7,2.2c1.3,0,2.3,1.1,2.3,2.3c-0.1,6.8-1.5,16.1-1.5,16.1l2.7-0.5C28.7,219.8,27.8,212.6,27.1,208.8z"/>
			<path class="st2" d="M53,188c0,0-5.5,2.3-7.5,7.2c-1.1,2.7-0.5,6.8-0.3,8.3c0.1,0.4,0.1,0.9,0,1.3l-2.1,18.1h3.3
				c-0.8-6.5-0.5-12.4-0.2-15.5c0.1-1.3,0.8-2.5,1.8-3.3c1.7-1.2,4.2-3.3,5.2-5.8C55.3,193.5,53,188,53,188z"/>
			<path class="st3" d="M29.1,252.8h13.1c0.4,0,0.8-0.1,1.2-0.3c5.1-2.8,8.5-8.1,8.5-14.3v-12.7c0-1.4-1.2-2.6-2.6-2.6H21.9
				c-1.4,0-2.6,1.2-2.6,2.6v12.7c0,6.2,3.5,11.6,8.5,14.3C28.2,252.7,28.7,252.8,29.1,252.8z"/>
			<rect x="19.3" y="230.3" class="st0" width="32.6" height="7.8"/>
			<rect x="19.3" y="230.3" class="st4" width="32.6" height="1.9"/>
		</g>
		
			<rect x="109.1" y="42.7" transform="matrix(0.9829 0.1842 -0.1842 0.9829 14.2983 -19.1669)" class="st5" width="2.4" height="49.4"/>
		<path class="st6" d="M144.7,61c-10-6.4-22.9,3.1-32.7-4.6c-0.4-0.4-0.7-0.9-0.6-1.5l3.6-19.1c0.2-1.1,1.4-1.5,2.3-1
			c10,6.4,22.9-3.1,32.7,4.6c0.4,0.4,0.7,0.9,0.6,1.5c-1.2,6.4-2.4,12.8-3.6,19.1C146.8,61.1,145.6,61.6,144.7,61z"/>
		<path class="st7" d="M108.9,80.1c-0.2,0.1-0.6,0.3-0.9,1.1c-0.1,0.2-0.1,0.3,0,0.4c0,0.4-0.1,0.7-0.4,1c-0.2,0.2-0.4,0.5-0.5,0.8
			c-0.2,0.5-0.3,1.2-0.1,1.7c0.1,0.4,0.1,0.9,0,1.3c-0.1,0.3,0,0.5,0.1,0.8c0.3,0.6,1,0.8,1.6,0.5c0.4-0.2,0.7-0.7,0.6-1.1
			c0-0.2,0.1-0.5,0.2-0.6c0,0,0,0,0.1-0.1c0.2-0.3,0.2-0.6,0.2-0.9c-0.1-0.3,0-0.6,0.3-0.8c0.2-0.2,0.5-0.5,0.6-0.9
			c0.1-0.3,0.1-0.5,0-0.7c-0.1-0.3,0-0.6,0.3-0.8c0.2-0.2,0.4-0.5,0.4-0.9C111.2,80,109.5,79.8,108.9,80.1z"/>
		<path class="st7" d="M101.9,83.4C101.9,83.4,101.9,83.4,101.9,83.4c0.3-0.5,0.6-1,0.9-1.4l1.3-1.4c0.9-0.9,1.4-1.6,2.5-1.7
			c1.8-0.2,4.2-0.3,4.3,0.7c0.1,0.9-2.2,1.5-3.6,1.7c-0.4,0.1-0.8,0.4-0.9,0.8c0,0,0.7,5.2-2.1,5.4l-0.7,1.9l-3.2-0.5l0.7-3.2
			C101.3,84.8,101.6,84.1,101.9,83.4z"/>
		<path class="st8" d="M74.3,107.6c0,0-7.5-3-10.2,1.8c-2.8,4.9,1.3,17.8-8.6,19.6c-10,1.8-11,11.7-10.2,16.1
			c2.3,12.6,20.5,25.2,33.1,11.9c12.6-13.3-3-22.3-4.2-29C72.9,121.3,80.8,112.3,74.3,107.6z"/>
		<path class="st3" d="M79.7,130.8c-0.1-5.2,10.3-10.6-0.5-21.1c-0.3-0.3-0.8-0.3-1.1-0.1c-0.9,0.7-3.7,1.1-5.2,2.4
			c-2.7,2.4-6.9,9-5.6,12.3c2.8,7.1-1.9,13.2-2.3,21.2c-0.3,8.3,13.2,16.5,19.7,14.2c2.3-0.8,3.7-2.5,4.4-4.5
			c0.5-1.6,0.4-3.3-0.4-4.7c0,0,0,0,0,0C86.1,145.7,79.9,148,79.7,130.8z"/>
		<path class="st7" d="M96.6,205.4c3.1-17.2,1.8-31.7,0.6-39.4c-0.5-3.4-3.3-6-6.8-6.4l0,0c-4.9-0.5-9.2,3.6-8.9,8.5
			c0.1,2.2,0.4,4.7,1,7.7c2.3,11.6,6.2,67.5,6.2,67.5c0,0.3,0,0.6-0.1,0.8c-0.3,1-0.6,1.4-0.9,1.8c-0.8,1.1-0.3,1.9,1.4,3.3
			c1.4,1.1,0.7,3.1,2.1,3.3c2,0.3,3.4,0.2,3.6-0.3c0.2-0.7-0.3-0.8-2-1.6c-1.3-0.7-1.5-4.7-1.5-6.3c0-0.4,0-0.8,0.1-1.2L96.6,205.4z
			"/>
		<path class="st7" d="M79.5,207.8c3.2-9.5,8.9-40,7.7-48.5l-7.7-0.6c-3.9-0.2-7.4,2.3-8.5,6c-1.7,5.6-3.3,14.9-1.8,28.6
			c0,0,1.2,7.4,0,12.2c-1.1,4.3-7.1,31.3-8.2,36.2c-0.2,0.7-0.5,1.4-0.6,1.6c-0.5,0.9-0.8,1.1-1.2,1.4c-1.1,0.9-0.8,1.8,0.5,3.5
			c1.1,1.4-0.1,3.2,1.3,3.8c1.9,0.8,3.2,1,3.5,0.6c0.4-0.6-0.1-0.8-1.6-2.1c-0.6-0.5-0.5-2.2-0.3-3.8c0.2-1.7,0.7-3.4,1.5-5
			C67.2,235.3,76.8,215.8,79.5,207.8z"/>
		<path class="st8" d="M95.6,213.3c-8.9,2.3-18.3,2.3-28.2,0c0.8-3.7,1.5-6.7,1.8-7.9c1.2-4.8,0-12.2,0-12.2
			c-1.5-13.6,0.1-23,1.8-28.6c1.1-3.7,4.6-6.2,8.5-6l7.7,0.6c0,0,0,0,0,0l3.2,0.3c3.4,0.4,6.2,3,6.8,6.4c1.2,7.6,2.5,22.2-0.6,39.4
			L95.6,213.3z"/>
		<path class="st3" d="M72.5,192.5c-1,2.3-1.9,4.7-2.8,7.1c-0.1-3.4-0.5-6.3-0.5-6.3c-1.5-13.6,0.1-23,1.8-28.6
			c1.1-3.7,4.6-6.2,8.5-6l2.8,0.2l0,0h0l4.9,0.4c0,0,0,0,0,0l3.2,0.3c3.4,0.4,6.2,3,6.8,6.4c0.2,1.2,0.4,2.7,0.6,4.2
			C85,169.8,77.2,181.5,72.5,192.5z"/>
		<path class="st2" d="M102,110.2c1.2-6,2.4-21.5,2.4-21.5c-0.6-0.8-3.1-1.9-3.9-0.8l-4.9,21.3c-5.3,6.7-9.7,12.8-11.7,15.8
			c-0.8,1.1-2.1,1.9-3.4,2c-2.6,0.2-5.9,0.6-8.6,1.3c-13.1,3.4-7.7,8.2-7.7,8.2c1.6,1.6,2.9,3.5,3.9,5.5c1.7,3.6,3.8,8.2,5.1,10.9
			c0.5,1.7-1,6.8-1.6,8.4l-1.2,3.6c-0.2,0.5,0.1,1.1,0.6,1.3c5.9,2,17.8,2.3,25.4-0.1c0.9-0.3,1.3-1.2,0.8-2l-5.6-15.3
			c-1.5-3.2-1.2-4-0.2-5.9c0.6-1,0.8-2.3,0.4-3.5c-0.2-0.7-0.8-1.8-1.5-3c-1.1-1.7-0.9-4,0.4-5.6C95,125.3,100.9,115.8,102,110.2z"
			/>
		<path class="st7" d="M70.7,108.8c-3.9,1.1-4.6,4.3-3.2,9.5c0.5,1.9,1.9,3.6,3,4.6c0.8,0.8,1.2,1.8,1.2,2.9l-0.1,3.2
			c0.2,2.9,1.9,4,3.9,4c1,0,2.1-0.5,2.8-1.3c0.8-0.9,0.5-2.3,0-3.4l-0.5-0.8c-0.6-1-0.3-2.4,0.8-3c0.8-0.4,1.7-1.1,2.2-1.7
			c0.5-0.6,0.8-5.2-1.3-9.9C77.3,108,74.6,107.7,70.7,108.8z"/>
		<path class="st3" d="M65.5,112.6c3.2-6.1,10-8.1,13.4-6c1.9,1.1,4.4,6,0.3,6.1c-1,0-2-0.3-2.8-0.8c-0.3-0.2-0.6-0.2-0.9-0.2
			l-2.7,0.9c-2.2,0.8-3.4,3.1-2.6,5.4l0.3,0.8c0.1,0.4-0.3,0.8-0.7,0.6l-0.2-0.3c-0.4-0.8-1.1-1.3-2-1.6
			C65.8,117,63.6,116.3,65.5,112.6z"/>
		<path class="st9" d="M79.6,118.9c0.3,0.5-0.1,1.2-0.6,1.3l0,0c-0.5,0.1-1-0.2-1.1-0.7l-0.9-3.9c0-0.1,0-0.3,0.1-0.4
			c0.1-0.1,0.2-0.2,0.3-0.2c0.2,0,0.4,0.1,0.5,0.2L79.6,118.9z"/>
		<path class="st7" d="M69.5,118.6c0.3,1.2,0.7,2.7-0.3,3c-1.1,0.3-2.7-1.6-3-2.8c-0.3-1.2,0.3-1.7,1.3-2
			C68.5,116.5,69.2,117.4,69.5,118.6z"/>
		<path class="st7" d="M71.7,186.3c-0.6-1-1.2-2-1.5-2.3c-0.1-0.1-0.6-0.4-0.7-0.5c-0.4-0.3-1-0.6-1.1-1.1l-0.7-1.8
			c-0.3-0.9-1-1.4-1.9-1l0,0c-0.9,0.4-1.1,1.3-0.6,2.2l0.5,1.3c0.4,0.7,0.4,1.5,0.4,2.3c0.1,1.6,1.1,3.2,2.1,4.4
			c0.6,0.8,1.9,0.9,3.6,0.9c0.8,0,2.2-0.2,1.4-0.9c-0.7-0.6-3.2-0.8-3.5-3.4c0-0.1,0-0.4,0.1-0.5c0.4-0.2,0.9,0.8,1.2,1.1
			c0.5,0.5,1.1,0.6,1.3,0.5C72.7,187.3,72.1,187,71.7,186.3z"/>
		<path class="st8" d="M133.8,175.6l-13.4,11.2c-6.1,5.1-9.6,12.6-9.6,20.6v45.4l0,0c5.2,0,9.4-4.2,9.4-9.4v-5.3
			c0-11.7,5.2-22.7,14.1-30.2l12.4-10.4L133.8,175.6z"/>
		<path class="st10" d="M181.8,175.6l13.4,11.2c6.1,5.1,9.6,12.6,9.6,20.6v45.4l0,0c-5.2,0-9.4-4.2-9.4-9.4v-5.3
			c0-11.7-5.2-22.7-14.1-30.2L169,197.5L181.8,175.6z"/>
		<path class="st3" d="M181.8,175.6l13.4,11.2c6.1,5.1,9.6,12.6,9.6,20.6v45.4l0,0c-5.2,0-9.4-4.2-9.4-9.4v-5.3
			c0-11.7-5.2-22.7-14.1-30.2L169,197.5L181.8,175.6z"/>
		<path class="st8" d="M175.2,229.4h-34.4c-2.4,0-4.3-2.1-4-4.5l3.1-25.3h36.3l3.1,25.3C179.5,227.3,177.6,229.4,175.2,229.4z"/>
		<path class="st3" d="M175.2,229.4h-9.5v-29.7h10.4l3.1,25.3C179.5,227.3,177.6,229.4,175.2,229.4z"/>
		<path class="st5" d="M170,205.4c6,0,11.2-4.2,12.3-10.1c2.7-14,4.3-30.5,4.3-48.1c0-50.4-22.5-103-28.7-103
			c-7.4,0-28.7,52.6-28.7,103c0,17.7,1.6,34.2,4.3,48.1c1.2,5.9,6.3,10.1,12.3,10.1H170z"/>
		<path class="st5" d="M177.5,86c-7-24.4-15.9-41.8-19.6-41.8c-4.3,0-13.2,17.4-19.9,41.8H177.5z"/>
		<path class="st8" d="M175.7,79.7C169,58.7,161.3,44.1,158,44.1c-3.9,0-11.6,14.5-18.1,35.6H175.7z"/>
		<path class="st11" d="M143.5,79.7h3.8c3.6-11.7,5.2-19.9,8.2-27.6c0.2-0.6-0.7-1.1-1-0.5C151.5,56.7,147.9,65.4,143.5,79.7z"/>
		<circle class="st12" cx="157.8" cy="138.7" r="20.5"/>
		<circle class="st1" cx="157.8" cy="136.6" r="20.5"/>
		<path class="st13" d="M157.8,116.1c-0.1,0-0.1,0-0.2,0v41c0.1,0,0.1,0,0.2,0c11.3,0,20.5-9.2,20.5-20.5
			C178.3,125.2,169.1,116.1,157.8,116.1z"/>
		<circle class="st14" cx="157.8" cy="136.6" r="14"/>
		<path class="st2" d="M171.1,239.6h-26.3c-2.4,0-4.4-2-4.4-4.4v-5.8h35v5.8C175.5,237.6,173.5,239.6,171.1,239.6z"/>
		<path class="st15" d="M171.1,239.6h-3.2v-10.2h7.6v5.8C175.5,237.6,173.5,239.6,171.1,239.6z"/>
		<path class="st1" d="M158.2,252.5l-0.2,0.3l0,0c-2.1-2.4-3.4-5.4-3.5-8.6l-1.9-59.3c-0.1-4.4,1.8-8.6,5.3-11.3l0,0l0,0
			c3.5,2.7,5.5,6.9,5.3,11.4l-2,59.5C161.2,247.3,160.1,250.2,158.2,252.5z"/>
		<path class="st3" d="M158.2,252.5l-0.2,0.3l0,0l0-79.3l0,0l0,0c3.5,2.7,5.5,6.9,5.3,11.4l-2,59.5
			C161.2,247.3,160.1,250.2,158.2,252.5z"/>
		<path class="st16" d="M165.5,124.9c0,0.3,0,0.6,0,0.8c0,10-8.1,18.2-18.2,18.2c-0.6,0-1.1,0-1.6-0.1c2.5,4.1,6.9,6.8,12,6.8
			c7.7,0,14-6.3,14-14C171.8,131.7,169.3,127.4,165.5,124.9z"/>
		<path class="st2" d="M64.3,131.5c1.3-1.3,4.3-1.7,7.1-1.1c2.7,0.5-3.1,19.1-8.4,27.8c-0.6,0.9-0.8,2.1-0.5,3.1l5.7,20.2
			c-0.7,1.4-1.9,1.6-3.2,1.8l-9.6-21c-0.9-2-1.1-4.2-0.6-6.3C56.6,149.5,60.5,135.4,64.3,131.5z"/>
		<path class="st7" d="M232.3,240l1.5,5.9c0.1,0.2,0.2,0.4,0.3,0.6l1.1,1.6c0.7,1,0.2,2.4-1,2.7c0,0-2.2,0.8-4.4,1.5
			c-2.3,0.7-5.1,0.1-5.1-0.5c0-1.3,1.2-0.3,3.3-1.7c0.7-0.5,1.4-1,2.1-1.5c1.8-1.4,0.2-5-0.9-7c-0.4-0.7,0-2.5,0.8-2.7l0.5-0.1
			C231.4,238.8,232.1,239.3,232.3,240z"/>
		<path class="st7" d="M231,189.3c-0.4-1.1-0.8-2.2-1-2.7c-0.1-0.2-0.5-0.6-0.6-0.7c-0.3-0.4-0.8-0.9-0.9-1.3l-0.3-1.9
			c-0.1-0.9-0.7-1.6-1.6-1.4l0,0c-1,0.2-1.3,1.1-1.1,2.1l0.2,1.4c0.2,0.8,0.1,1.6-0.1,2.4c-0.2,1.7,0.4,3.5,1.1,4.9
			c0.4,0.9,1.7,1.3,3.4,1.7c0.8,0.2,2.2,0.3,1.5-0.6c-0.5-0.7-3.1-1.5-2.7-4.1c0-0.1,0.1-0.5,0.2-0.5c0.5-0.1,0.7,0.9,1,1.4
			c0.4,0.7,1,0.9,1.3,0.8C231.8,190.5,231.3,190.1,231,189.3z"/>
		<path class="st2" d="M236.3,128.9c-2.7,8.4-9.5,24.2-19.6,29.8c-6.8,3.8-23.3,9.4-23.3,9.4s-0.5-0.7-0.9-1.3
			c-0.4-0.6-0.6-1.5-0.6-1.5s20.5-10.5,23.3-13.6c2.7-3,11.9-22.5,14.7-25.5C233.1,122.7,237.8,124.2,236.3,128.9z"/>
		<polygon class="st7" points="227.4,169.7 233.9,124.2 251.4,121.8 260.5,169.4 		"/>
		<path class="st7" d="M264.9,238.9l1.8,5.9c0.1,0.3,0.2,0.5,0.3,0.7l1.3,1.9c0.8,1.2,0.2,2.8-1.1,3.2c0,0-2.5,0.9-5.1,1.7
			c-2.7,0.9-6,0.1-6-0.6c0-1.6,1.5-0.3,3.9-2c0.8-0.5,1.7-1.1,2.4-1.7c2.1-1.7,0.3-5.8-1-8.2c-0.5-0.8,0-1.9,1-2.1l0.6-0.1
			C263.8,237.5,264.7,238,264.9,238.9z"/>
		<path class="st3" d="M246.9,170.2l-19.4-1.6c0,0-6.9,24.6-8.7,35.6c-1.3,7.9,10.7,38.5,10.7,38.5c1.2,0.5,2.3-0.1,3.6-0.4
			c0,0-3.6-27-2.4-33.6c1.3-6.9,11.6-20.8,12.3-24.4C244.3,176.7,246.9,170.2,246.9,170.2z"/>
		<path class="st8" d="M242.9,170.4c-2,10.7-6.5,26.8,2.1,41.9c8.6,15.1,17.7,30.8,17.7,30.8c1.2,0,2.2-0.4,3.2-1.1
			c0,0-1.5-6.8-3.7-14.8c-2.5-9.1-5.7-19.9-4.8-25.5c1.7-10.5,3.6-24.5,3-31.3C259.9,163.6,243.9,164.8,242.9,170.4z"/>
		<path class="st14" d="M227.6,170.4c-0.7-0.3-1.1-1.1-0.9-1.8l7.2-44.4l17.5-2.4l9.4,46.9c0.2,0.9-0.4,1.7-1.3,1.9
			c-3.3,0.6-11.1,1.9-19.9,1.9C233,172.5,229.3,171.2,227.6,170.4z"/>
		<path class="st2" d="M247.4,133.5c2.1,5.8,5.5,17.2,3.6,27.2c-2.7,14.1-6.3,19.8-1.7,23.1c4.6,3.3,13.3-2.2,13.6-4
			c0.3-1.8-1.7-24.3-3.9-34s-8.4-23.7-8.4-23.7l-3.2,0.3C247.3,122.3,246.4,130.8,247.4,133.5z"/>
		<path class="st2" d="M236.9,123.7c0,0-1.4,6.3-0.3,15.8c1.1,9.4,3.5,38.1-5.1,42.5c-2.7,1.4-8.9-5.7-8.9-7c0-2.3,2.1-9.8,4-16.7
			c1.6-5.5,3.2-23.9,3.7-31c0.1-1.6,1.4-2.9,3-3.1L236.9,123.7z"/>
		<g>
			<path class="st17" d="M249.6,104.5c0,0-0.3,2.6,1.3,4.6c1.6,1.9-0.7,3.7-1.3,5c-0.5,1.3,0.1,3.3-1.4,4.2
				c-1.5,0.9-5.8,1.1-6.5-0.4C241.1,116.2,244.8,103.6,249.6,104.5z"/>
			<path class="st17" d="M232.3,107.9c-0.2,8.6,7.8,10.3,12.5,10.3c4.7,0,4.9-10.3,4.9-14.1c0-3.7-3.7-4.3-8.3-4.3
				c-3.7,0-7.2,2.9-8.6,5.6C232.3,106.2,232.3,107.2,232.3,107.9z"/>
			<path class="st7" d="M241.1,103.2c3.9,0,5.4,2.8,5.4,7.9c0,1.9-0.8,3.8-1.5,5.1c-0.5,0.9-0.7,2-0.4,3l0.9,2.9
				c0.6,2.7-0.7,4.2-2.6,4.7c-0.9,0.3-2.1,0.1-2.9-0.5c-1-0.6-1.1-2-0.9-3.1l0.2-0.8c0.3-1.1-0.3-2.3-1.5-2.6
				c-3-0.7-3.4-3.8-4.2-8.7C232.8,106,237.1,103.2,241.1,103.2z"/>
			<path class="st17" d="M232,100.9l2.2,0.7c0.8,0.3,1.7,0.3,2.5,0l4.5-1.3c2.7,0,7.2,1.5,6.6,5.4l-0.5,2.8c-0.2,1.1-1.1,1.9-2.2,2
				l0,0c-0.1,0.4-0.5,0.6-0.8,0.6c-0.5,0-0.9-0.4-0.9-0.9l0,0c0-1.2-0.9-2.3-2.1-2.6c-1.5-0.3-3.1-0.4-4.8,0
				c-3.1,0.8-6.4-1.1-6.7-4.3c0-0.2,0-0.4,0-0.6C229.8,101.6,230.8,100.6,232,100.9z"/>
			<path class="st7" d="M244.3,111.2c0,1.2,0.4,2.2,1.6,2.2c1.1,0,1.9-1.6,1.9-2.8c0-1.2-0.7-1.5-1.9-1.5
				C244.8,109,244.3,110,244.3,111.2z"/>
			<path class="st9" d="M234.8,114.8c-0.1,0.6,0.3,1.1,0.9,1.1l0,0c0.5,0,0.9-0.4,0.9-0.8l0-3.8c0-0.1-0.1-0.3-0.2-0.4
				c-0.1-0.1-0.2-0.2-0.4-0.2c-0.2,0-0.4,0.1-0.4,0.3L234.8,114.8z"/>
		</g>
		<path class="st16" d="M242.8,130.6c0.2,0,0.4,0.2,0.5,0.4c0.6,1.9,3.3,10.7,3.9,15.5c0.5,3.9-1.1,10.7-2,14.2
			c-0.4,1.4-1.2,2.5-2.5,3.3l-0.6,0.4c-0.5,0.3-1.2,0.1-1.5-0.4l-0.5-0.9c-0.4-0.7-0.4-1.4-0.2-2.2c1.1-2.8,3.7-10.1,3.4-14.9
			c-0.1-1.7-1.7-12.1-2.2-14.7c-0.1-0.3,0.2-0.6,0.5-0.6L242.8,130.6z"/>
		<path class="st18" d="M242.2,129.3c0.2,0,0.4,0.2,0.5,0.4c0.6,1.9,3.1,10.8,3.6,15.6c0.4,3.9-1.3,10.7-2.3,14.1
			c-0.4,1.4-1.3,2.5-2.5,3.2l-0.6,0.3c-0.5,0.3-1.2,0.1-1.5-0.4l-0.5-0.9c-0.4-0.7-0.4-1.5-0.1-2.2c1.1-2.7,3.9-10,3.8-14.8
			c0-1.7-1.5-12.1-1.8-14.8c0-0.3,0.2-0.6,0.5-0.6L242.2,129.3z"/>
		<path class="st18" d="M240.7,129.6h1.7c0.3,0,0.5-0.2,0.5-0.5v-1.7c0-0.3-0.2-0.5-0.5-0.5l-1.5-0.2c-0.3,0-0.7,0.4-0.7,0.7v1.7
			C240.2,129.3,240.5,129.6,240.7,129.6z"/>
		<path class="st5" d="M245.3,121.7l2.8,0.5c0,0-0.6,4.6-2.8,8c-0.2,0.2-0.5,0.2-0.7,0l-2-2.8c-0.2-0.3-0.3-0.8,0-1.1L245.3,121.7z"
			/>
		<path class="st5" d="M239.2,122.9l-2.8,0.9c0,0-0.1,2.8,2.1,6.1c0.2,0.2,0.5,0.2,0.7,0l1.6-2.6c0.2-0.3,0.2-0.7,0.1-1L239.2,122.9
			z"/>
		<g>
			<path class="st3" d="M244.6,158.1v-5.9c0-1.4-1.1-2.5-2.5-2.5h-1.8c-1.2,0-2.2-0.7-2.6-1.8c-0.3-0.8-0.6-1.7-1-2.4
				c-0.5-1.1-0.3-2.3,0.5-3.1l1.3-1.3c1-1,1-2.5,0-3.5l-4.2-4.2c-1-1-2.5-1-3.5,0l-1.3,1.3c-0.8,0.8-2.1,1-3.1,0.5
				c-0.8-0.4-1.6-0.7-2.4-1c-1.1-0.4-1.8-1.4-1.8-2.6v-1.8c0-1.4-1.1-2.5-2.5-2.5h-5.9c-1.4,0-2.5,1.1-2.5,2.5v1.8
				c0,1.2-0.7,2.2-1.8,2.6c-0.8,0.3-1.7,0.6-2.4,1c-1.1,0.5-2.3,0.3-3.1-0.5l-1.3-1.3c-1-1-2.5-1-3.5,0l-4.2,4.2c-1,1-1,2.5,0,3.5
				l1.3,1.3c0.8,0.8,1,2.1,0.5,3.1c-0.4,0.8-0.7,1.6-1,2.4c-0.4,1.1-1.4,1.8-2.6,1.8h-1.8c-1.4,0-2.5,1.1-2.5,2.5v5.9
				c0,1.4,1.1,2.5,2.5,2.5h1.8c1.2,0,2.2,0.7,2.6,1.8c0.3,0.8,0.6,1.7,1,2.4c0.5,1.1,0.3,2.3-0.5,3.1l-1.3,1.3c-1,1-1,2.5,0,3.5
				l4.2,4.2c1,1,2.5,1,3.5,0l1.3-1.3c0.8-0.8,2.1-1,3.1-0.5c0.8,0.4,1.6,0.7,2.4,1c1.1,0.4,1.8,1.4,1.8,2.6v1.8
				c0,1.4,1.1,2.5,2.5,2.5h5.9c1.4,0,2.5-1.1,2.5-2.5v-1.8c0-1.2,0.7-2.2,1.8-2.6c0.8-0.3,1.7-0.6,2.4-1c1.1-0.5,2.3-0.3,3.1,0.5
				l1.3,1.3c1,1,2.5,1,3.5,0l4.2-4.2c1-1,1-2.5,0-3.5l-1.3-1.3c-0.8-0.8-1-2.1-0.5-3.1c0.4-0.8,0.7-1.6,1-2.4
				c0.4-1.1,1.4-1.8,2.6-1.8h1.8C243.5,160.6,244.6,159.5,244.6,158.1z M217.8,168.6c-8.3,0.7-15.2-6.2-14.5-14.5
				c0.5-6.5,5.8-11.8,12.3-12.3c8.3-0.7,15.2,6.2,14.5,14.5C229.6,162.8,224.3,168.1,217.8,168.6z"/>
			<path class="st1" d="M252.9,159v-7.7c0-1.8-1.4-3.2-3.2-3.2h-2.4c-1.5,0-2.9-1-3.4-2.4c-0.4-1.1-0.8-2.1-1.3-3.2
				c-0.7-1.4-0.4-3,0.7-4.1l1.7-1.7c1.3-1.3,1.3-3.3,0-4.5l-5.4-5.4c-1.3-1.3-3.3-1.3-4.5,0l-1.7,1.7c-1.1,1.1-2.7,1.4-4.1,0.7
				c-1-0.5-2.1-0.9-3.2-1.3c-1.4-0.5-2.4-1.8-2.4-3.4v-2.4c0-1.8-1.4-3.2-3.2-3.2h-7.7c-1.8,0-3.2,1.4-3.2,3.2v2.4
				c0,1.5-1,2.9-2.4,3.4c-1.1,0.4-2.1,0.8-3.2,1.3c-1.4,0.7-3,0.4-4.1-0.7l-1.7-1.7c-1.3-1.3-3.3-1.3-4.5,0l-5.4,5.4
				c-1.3,1.3-1.3,3.3,0,4.5l1.7,1.7c1.1,1.1,1.4,2.7,0.7,4.1c-0.5,1-0.9,2.1-1.3,3.2c-0.5,1.4-1.8,2.4-3.4,2.4h-2.4
				c-1.8,0-3.2,1.4-3.2,3.2v7.7c0,1.8,1.4,3.2,3.2,3.2h2.4c1.5,0,2.9,1,3.4,2.4c0.4,1.1,0.8,2.1,1.3,3.2c0.7,1.4,0.4,3-0.7,4.1
				l-1.7,1.7c-1.3,1.3-1.3,3.3,0,4.5l5.4,5.4c1.3,1.3,3.3,1.3,4.5,0l1.7-1.7c1.1-1.1,2.7-1.4,4.1-0.7c1,0.5,2.1,0.9,3.2,1.3
				c1.4,0.5,2.4,1.8,2.4,3.4v2.4c0,1.8,1.4,3.2,3.2,3.2h7.7c1.8,0,3.2-1.4,3.2-3.2v-2.4c0-1.5,1-2.9,2.4-3.4
				c1.1-0.4,2.1-0.8,3.2-1.3c1.4-0.7,3-0.4,4.1,0.7l1.7,1.7c1.3,1.3,3.3,1.3,4.5,0l5.4-5.4c1.3-1.3,1.3-3.3,0-4.5l-1.7-1.7
				c-1.1-1.1-1.4-2.7-0.7-4.1c0.5-1,0.9-2.1,1.3-3.2c0.5-1.4,1.8-2.4,3.4-2.4h2.4C251.5,162.2,252.9,160.8,252.9,159z M218.1,172.6
				c-10.7,0.8-19.7-8.1-18.8-18.8c0.7-8.5,7.5-15.3,16-16c10.7-0.8,19.7,8.1,18.8,18.8C233.4,165,226.5,171.9,218.1,172.6z"/>
			<circle class="st19" cx="216.7" cy="155.2" r="23.3"/>
			<path class="st20" d="M193.4,155.2c0-12.8,10.4-23.3,23.3-23.3"/>
		</g>
		<path class="st7" d="M217.1,132c0.6-0.5,0.8-1.5,0.2-2.2l-0.6-0.8c-0.7-0.9-1.2-2-1.2-3.2c0-0.8-0.5-3.1-1.3-2.9
			c-0.7,0.1,0,2.9-0.7,2.8c-0.3,0-1.5-2-2.4-3.2c-0.5-0.6-1.4-1-1.5-0.4c-0.1,0.4-0.5,0.4-0.9,0.7c-0.4,0.3-0.2,2.3-0.2,2.9
			c0,0.7-0.2,0.9,0.8,2c0.8,0.9,4.2,3.1,4.2,3.1l1.5,1C215.6,132.5,216.5,132.5,217.1,132L217.1,132z"/>
		<path class="st2" d="M216.7,128.8c0,0,14.1,13.6,17.4,14.7c3.3,1.1,12.8-18.5,14.5-20.5c2.8-3.4,8.9,0.1,7.8,6.3
			c-1.3,7.8-20,23-22.3,23.2c-2.3,0.2-19.9-20.7-19.9-20.7C214.4,130.8,215.3,129.8,216.7,128.8z"/>
		<path class="st5" d="M132.3,43.3l0.7,2.2c0.1,0.2,0.3,0.4,0.5,0.5l2.2,0.7c0.6,0.2,0.7,0.9,0.2,1.3l-1.9,1.4
			c-0.2,0.1-0.3,0.4-0.3,0.6l0,2.3c0,0.6-0.7,0.9-1.1,0.6l-1.9-1.4c-0.2-0.1-0.4-0.2-0.7-0.1l-2.2,0.8c-0.6,0.2-1.1-0.3-0.9-0.9
			l0.7-2.2c0.1-0.2,0-0.5-0.1-0.7l-1.4-1.8c-0.4-0.5,0-1.2,0.6-1.2l2.3,0c0.2,0,0.5-0.1,0.6-0.3l1.3-1.9
			C131.4,42.6,132.2,42.7,132.3,43.3z"/>
		<g>
			<path class="st5" d="M131,40.3L131,40.3c0.4,0,0.8,0,1.1,0.1c2,0.3,3.8,1.4,5,3s1.7,3.7,1.4,5.7c-0.6,3.7-3.8,6.5-7.6,6.5
				c-0.4,0-0.8,0-1.1-0.1c-2-0.3-3.8-1.4-5-3c-1.2-1.6-1.7-3.7-1.4-5.7C124,43.1,127.2,40.3,131,40.3 M131,39.6
				c-4.1,0-7.7,3-8.3,7.1c-0.7,4.6,2.5,8.8,7,9.5c0.4,0.1,0.8,0.1,1.3,0.1c4.1,0,7.7-3,8.3-7.1c0.7-4.6-2.5-8.8-7-9.5
				C131.8,39.6,131.4,39.6,131,39.6L131,39.6z"/>
		</g>
		<path class="st14" d="M279,256h-263c-0.9,0-1.6-0.7-1.6-1.6l0,0c0-0.9,0.7-1.6,1.6-1.6h263c0.9,0,1.6,0.7,1.6,1.6l0,0
			C280.6,255.3,279.9,256,279,256z"/>
	</g>
</g>
<g id="DESIGNED_BY_FREEPIK">
</g>
</svg>
