<?xml version="1.0" encoding="utf-8"?>
<!-- Generator: Adobe Illustrator 20.0.0, SVG Export Plug-In . SVG Version: 6.00 Build 0)  -->
<svg version="1.1" xmlns="http://www.w3.org/2000/svg" xmlns:xlink="http://www.w3.org/1999/xlink" x="0px" y="0px"
	 viewBox="0 0 500 439" style="enable-background:new 0 0 500 439;" xml:space="preserve">
<style type="text/css">
	.st0{opacity:0.35;fill:#8FA9C9;}
	.st1{fill:#0B0B3A;}
	.st2{fill:#FFFFFF;}
	.st3{fill:#1A1A47;}
	.st4{fill:#33305B;}
	.st5{fill:#D73E5C;}
	.st6{fill:#9E304F;}
	.st7{fill:#F4F4F4;}
	.st8{fill:#E04469;}
	.st9{fill:#BA3E5C;}
	.st10{fill:#DBDBDB;}
	.st11{fill:#8C8C8C;}
	.st12{fill:#AD3457;}
	.st13{fill:#D19F9C;}
	.st14{opacity:0.4;fill:#FFFFFF;}
	.st15{opacity:0.3;}
	.st16{fill:#3D3D72;}
	.st17{opacity:0.4;}
	.st18{opacity:0.58;fill:#E1EBF9;}
	.st19{fill:#37396B;}
	.st20{fill:#E1EDF9;}
	.st21{fill:#C2E0F2;}
	.st22{fill:#ED4877;}
	.st23{opacity:0.58;fill:#C9DDF9;}
	.st24{fill:#FEFEFF;}
	.st25{fill:#333333;}
	.st26{fill:none;stroke:#231F20;stroke-linecap:round;stroke-miterlimit:10;}
	.st27{fill:none;stroke:#FFFFFF;stroke-linecap:round;stroke-miterlimit:10;}
	.st28{fill:#171733;}
	.st29{fill:#CADAEF;}
	.st30{fill:#EDEDED;}
</style>
<g id="OBJECTS">
	<g>
		<ellipse id="XMLID_397_" class="st0" cx="250" cy="413.8" rx="227.3" ry="22.5"/>
		<g>
			<path id="XMLID_453_" class="st1" d="M282.9,35c0,0,3.2-13.7,26-9.3c21.8,4.2,20.4,34.6,23,42.9c2,6.5,6.1,15.7,7.8,19.5
				c0.4,0.9,0,2-1,2.3c-8.1,2.7-42.3,12.7-65.6-1.3c-2.1-1.2-3.8-3-4.7-5.3c-0.4-1-0.7-2.1-0.6-3.3c0.2-3.6,2.2-8.1,0.6-18.7
				S268.7,34.7,282.9,35z"/>
			<path id="XMLID_458_" class="st2" d="M276.1,64.4c0,0-2.9,3.6-1.9,9.6c1.1,6,6.4,5.8,6.4,5.8l0.7-6l-1.6-10.5L276.1,64.4z"/>
			<path id="XMLID_459_" class="st2" d="M327.2,64.4c0,0,2.9,3.6,1.9,9.6c-1.1,6-6.4,5.8-6.4,5.8l-0.7-6l1.6-10.5L327.2,64.4z"/>
			<path id="XMLID_488_" class="st2" d="M332.4,401.4c0.2,0.9,0.1,1.5,0.1,3.6c-4.3,1.9-10.5,2.2-13.6,1.3c-1.9-0.5-3.3-1.1-4.1-2.4
				c0.7-3.5,1.6-7.5,2-9.3c0.4-1.7,0.5-2.8,0.4-3.7c-1.1-9.2-4.5-26.1-5.9-36.4c-1.4-10.3-4.6-36-4.9-39.6c-0.1-2-1.2-5.2-1.1-10.5
				c0.5-13.9,2.6-36.6,2.6-36.6s27-2.8,27.6,4.4s-7.8,32.5-7.8,32.5s-0.7,6.4-2.1,14.9c0,5.9,1.4,22.1,1.7,32.1
				c0.3,10-0.3,30,0.2,35.5c0.2,2.5,1.2,5,2.3,7.3C331.1,397.3,331.9,398.4,332.4,401.4z"/>
			<path id="XMLID_469_" class="st2" d="M281,303.1c0.7,6.7,1.4,8.1,1.8,15.2c1.4,23.2,9.8,55.9,10.8,63.9c0.4,3.5,0.5,6.3,0.4,8.7
				c-0.3,5.2-4,10.7-8.4,13.8c-5.1,3.6-10.1,6.2-8.6,7.4l9.9-2.3c2.9-0.7,5.8-1.8,8.4-3.3c3.6-2.1,10.1-2,12.5-4.6
				c0.2-9-2.8-8.7-3.1-14.5c-0.3-5.7-1.6-57.2-2.9-65.3c-0.5-3-0.4-2.6-0.9-5.7c0-0.1,0-0.3,0-0.5c0.3-7.4,2.3-10.3,2.7-15.9
				C303.9,294.4,283.8,300.3,281,303.1z"/>
			<path id="XMLID_529_" class="st3" d="M335.9,279.8c-1.5,5.3-8.5,25.5-8.5,25.5s-1.7,0.3-4.4,0.8c-4.8,0.8-12.8,1.9-19.3,1.9
				c-10.9,0-23.2-2.7-23.2-2.7s-3.8-11.2-5.2-16.1c-1.4-4.9-7.6-26.5-7.8-38.2c-0.1-9.4,2.7-26.9,3.9-33.4c0.3-1.6,0.5-2.6,0.5-2.6
				h63.3c0,0,5,14.6,6.3,30.1C342.2,254.8,340.1,264.9,335.9,279.8z"/>
			<path id="XMLID_526_" class="st4" d="M335.9,279.8c-1.5,5.3-8.5,25.5-8.5,25.5s-1.7,0.3-4.4,0.8c1.1-8.4,4.4-33.2,4.5-50.1
				c0.2-20.6-5.7-32.7-5.7-32.7c-32.6,1.5-46.3-3.7-50.5-5.8c0.3-1.6,0.5-2.6,0.5-2.6h63.3c0,0,5,14.6,6.3,30.1
				C342.2,254.8,340.1,264.9,335.9,279.8z"/>
			<path id="XMLID_530_" class="st5" d="M330.9,180.8c-0.3,6.2-0.3,8.8,0.4,16.4c0.7,7,4.7,18.1,4.7,18.1s-5.5,2.2-14.4,3.9
				c-12.2,2.3-30.9,3.7-50.5-3c0,0,3-10.9,3.1-25.5c0-2,0-4-0.1-6.1c-0.1-2.7-1-7.5-2.1-13.4c-0.2-1.1-0.4-2.2-0.6-3.4
				c-0.7-4.3-1.5-8.9-2-13.7c-0.5-4.8-0.8-9.6-0.7-14.3c-1.8-12.8,2.1-25.3,2.1-25.3s16.1-6.7,22.9-7.7c0,0,12.1-2.8,20.6,0.1
				c11.1,3.7,17.2,5.8,22.2,8.6c0.5,0.3,3.8,9.8,2.3,18.1c-2.1,12.2-5.2,29-6.8,39.1C331.4,176.7,331,179.7,330.9,180.8z"/>
			<path id="XMLID_524_" class="st6" d="M336,215.3c0,0-5.5,2.2-14.4,3.9c-3.4-8.8-4-26.3-4-26.3c-9.5-1.6-24-7.3-24-7.3
				c-3.8,1.8-15.6,4.4-19.3,5.2c0-2,0-4-0.1-6.1c-0.1-2.7-1-7.5-2.1-13.4c4.5-3.1,12.7,3.8,12.7,3.8l41.8-6.6c0,0,3,1.8,5.5,4.2
				c-0.7,4-1.1,7-1.2,8.2c-0.3,6.2-0.3,8.8,0.4,16.4C331.9,204.2,336,215.3,336,215.3z"/>
			<path id="XMLID_531_" class="st2" d="M325.4,57.5c0,6.1-1.2,20.4-5.1,29.8c-2.5,6.1-6.5,10.3-10.8,12.9c-0.1,2.4-0.1,5.7,1.6,5.9
				c0.5,1.1,1.1,1.4,0.8,3.1c-1.2,6.1-8.3,12.8-10,14.5s-2.8,0-2.8,0c-2-2.2-3.8-5.1-5.2-7.7c-0.9-1.7-1.6-3.1-2-4.2
				c-1.1-2.7,0.5-4.8,0.5-4.8c1.9-0.2,1.2-4.3,1-6.4c-3.6-2.6-7.1-7-9.6-12.2c-5.1-10.4-5.4-23.7-5.4-30.9c0-13,10.5-23.5,23.5-23.5
				S325.4,44.5,325.4,57.5z"/>
			<path id="XMLID_525_" class="st7" d="M309.2,100.4c-1.4,0.5-7,2.7-8.1,5.1c-1.2,2.7-1.9,7.1-3.1,8.4c-1,1-3.3,2-4.1,2.3
				c-0.9-1.7-1.6-3.1-2-4.2c-1.1-2.7,0.5-4.8,0.5-4.8c1.9-0.2,1.2-4.3,1-6.4c0,0,4,1.6,7.4,1.4C304,101.8,307.8,100.8,309.2,100.4z"
				/>
			<path id="XMLID_464_" class="st2" d="M317.8,162.5c0,0,3.7-0.7,4.9-0.7c1.2,0-2.2,10.7-2.2,10.7s-1.2-1.3-2.7-1.5
				c-1.5-0.2-0.9-8.3-0.9-8.3L317.8,162.5z"/>
			<path id="XMLID_461_" class="st8" d="M336.5,115.5c0,0,10.6,5.5,10,13.7c-0.6,8.3-13.1,53.3-15.2,59.2
				c-2.1,5.9-56.3-12.1-56.3-12.1s1.7-7.2,3.2-9.2c0,0,37,3.9,41.9,5.8c0,0,7.5-35.8,9.8-42.1C332.2,124.6,336.5,115.5,336.5,115.5z
				"/>
			<path id="XMLID_528_" class="st9" d="M318.5,171.6c-5.6,3.2-48.4,20.9-52.3,19.8c-4-1.1-8.7-4.6-9.4-15.1
				c-0.6-9.3,4.8-45.9,6.1-54.4c0.2-1.1,0.8-2.9,1.6-3.7c0.3-0.3,0.5-0.6,0.8-0.8c2.7-2.1,5.5-3,5.5-3c0.5,1.2,0.4,6.2,1.1,14.9
				c0.1,1,0,2-0.2,2.9c-1.1,5.1-2.4,11.7-2.3,15.2c0,0.2,0,0.4,0,0.6c0.4,3.7,3.1,10.7,3.1,13.6c0.1,7,0.1,7.9,0.1,8
				c1.5-0.3,6.9-1.2,13.4-2.4c13.4-2.4,31.9-5.7,31.9-5.7C319.5,165.1,318.5,171.6,318.5,171.6z"/>
			<path id="XMLID_456_" class="st1" d="M273.7,66.7c0,0,7.4-1.3,11.7-6.8c3.3-4.3,5.2-10.3,5.2-10.3s2.6,5.6,11.3,9.5
				s18.2,6.7,27,7.6c0,0,0.6-20.3-6.1-28.6c-6.7-8.3-24-13-35.7-5.9C275.4,39.4,273.7,66.7,273.7,66.7z"/>
			<path id="XMLID_470_" class="st5" d="M307,394.6c0,0-5.3,10.5-20.4,9.1c0,0-7.9,4.8-10.7,7c-2.8,2.2-0.9,3.1-0.4,3.1h11.9
				c0.9,0,1.8-0.3,2.6-0.9c1.1-0.9,3.1-2.3,5.9-3.7c2.6-1.3,4.2-2,5.9-2.5c0.5-0.2,1.1,0.2,1.2,0.7l0.7,6.4h3.3c0,0,0.8-4.6,1-10.1
				C308.8,400.2,309.4,397.9,307,394.6z"/>
			<polygon id="XMLID_480_" class="st11" points="316.9,409.8 318.7,413.8 327.6,413.8 328.3,409.8 			"/>
			<path id="XMLID_500_" class="st9" d="M332.6,408.1c-0.7,2.5-2.6,4.9-4.6,5.7h-9.4c-1.7-0.8-3.8-3.1-4.3-5.5
				c-0.3-1.5-0.2-3.1,0.1-4.6c0.4-2,1.1-3.6,1.1-3.6c10.6,8,16-1.9,16-1.9s0.5,1.1,0.8,2.9C332.8,402.9,333,405.3,332.6,408.1z"/>
			<path id="XMLID_498_" class="st5" d="M332.6,408.1c-0.7,2.5-2.6,4.9-4.6,5.7h-9.4c-1.7-0.8-3.8-3.1-4.3-5.5
				c-0.3-1.5-0.2-3.1,0.1-4.6l0,0c0,0,0.4,2,1.3,3.5c0.6,1,1.9,1.4,3,1.2c2.3-0.5,5.5-0.5,8.1,0.3c0.8,0.3,1.7,0.2,2.4-0.4
				c0.5-0.4,0.9-1,1.3-1.6c0.5-0.9,1.8-2.6,1.8-5.1v-0.6C332.8,402.9,333,405.3,332.6,408.1z"/>
			<path id="XMLID_465_" class="st6" d="M292.5,106.9c0,0,1.2,10.9,6.6,16.9c0,0-1.8-0.6-5.1,3.4c-0.5,0.5-1.3,0.3-1.5-0.4
				c-1-4.5-4.4-15.3-2.5-19.1C289.9,107.7,290.9,106.6,292.5,106.9z"/>
			<path id="XMLID_452_" class="st6" d="M310.9,106.1c0,0-1.5,5.5-3.3,9.4c-2.2,4.8-6,8.5-6,8.5s4.2,0.8,6.1,3.5
				c0.3,0.5,0.9,0.3,1.2-0.1c1.2-2.4,2-4.6,3.4-9.5c1.6-5.6,1.6-8.7,1.5-11.1C313.7,106.8,312.6,105.4,310.9,106.1z"/>
			<path id="XMLID_523_" class="st12" d="M269.6,172.7c-4.3-3.7,0.8-10.8,0.5-13.2c-0.4-2.5-0.4-2.9-0.7-5.4c-0.2-1.2-0.4-4.3,0-6
				c0.4,3.7,3.1,10.7,3.1,13.6c0.1,7,0.1,7.9,0.1,8c1.5-0.3,15.9-2.8,22.4-4C296.5,166.6,272.5,175.2,269.6,172.7z"/>
			<path id="XMLID_462_" class="st2" d="M277.2,169l-4.6,0.8c0,0-5.2-0.5-8.6-0.2c-2.5,0.2-5.2,0.9-6.6,1.4
				c-0.5,0.2-0.9-0.2-1.1-0.8c-0.3-0.8-0.7-2.9-0.6-4.7c0.2-1.7,0.8-3.5,1.2-4.5c0.2-0.5,0.6-0.8,1.1-1c1.7-0.6,3.7-0.5,6.7-0.3
				c3.6,0.3,5.1,1.5,6.7,3.5l1.9,2.2c0.6,0.7,1.4,1.2,2.4,1.4l2.3,0.5c0,0-0.3,0.4-0.5,0.8C277.3,168.6,277.2,169,277.2,169z"/>
		</g>
		<g id="XMLID_609_">
			<rect id="XMLID_625_" x="43.9" y="272.1" class="st2" width="4.4" height="141.5"/>
			<path id="XMLID_624_" class="st2" d="M48.8,413.9h-5.3c-0.6,0-1.1-0.5-1.1-1.1v-1.7c0-0.6,0.5-1.1,1.1-1.1h5.3
				c0.6,0,1.1,0.5,1.1,1.1v1.7C49.9,413.4,49.4,413.9,48.8,413.9z"/>
			<rect id="XMLID_623_" x="456" y="272.1" class="st2" width="4.4" height="140.1"/>
			<path id="XMLID_622_" class="st2" d="M460.8,413.9h-5.3c-0.6,0-1.1-0.5-1.1-1.1v-1.7c0-0.6,0.5-1.1,1.1-1.1h5.3
				c0.6,0,1.1,0.5,1.1,1.1v1.7C461.9,413.4,461.4,413.9,460.8,413.9z"/>
			<path id="XMLID_610_" class="st13" d="M495.1,273.5H5.2c-2.3,0-4.1-1.9-4.1-4.1l0,0c0-2.3,1.9-4.1,4.1-4.1h489.9
				c2.3,0,4.1,1.9,4.1,4.1l0,0C499.2,271.6,497.4,273.5,495.1,273.5z"/>
		</g>
		<g>
			<g>
				<path id="XMLID_1_" class="st14" d="M188.1,69.3h14.1c5.9,0,10.8,4.8,10.8,10.8v12.2l0,0.1c0,2.7-1.1,5.2-3,7.1l-0.7,0.6
					c-1.5,1.5-3.4,2.5-5.5,2.8c-0.5,0.1-1,0.1-1.6,0.1h-14.1c-5.9,0-10.8-4.8-10.8-10.8V80.1C177.4,74.1,182.2,69.3,188.1,69.3z"/>
				<g class="st15">
					<path class="st16" d="M202.1,80.6c-1.8-2.4-4.8-4-8.1-4c-5.3,0-9.9,4.4-10.1,9.7c-0.2,5.8,4.4,10.5,10.1,10.5
						c3.4,0,6.5-1.7,8.3-4.3l-8.3-5.7L202.1,80.6z"/>
					<path class="st5" d="M204.4,80.6l-8,6.1l8.3,5.7c1.1-1.6,1.8-3.6,1.8-5.7C206.5,84.4,205.7,82.3,204.4,80.6z"/>
				</g>
			</g>
			<g id="XMLID_597_">
				<path id="XMLID_602_" class="st2" d="M428.4,5.6h-48c-9.3,0-16.8,7.5-16.8,16.8v19c0,3.5,1.1,6.7,2.9,9.4l-7.7,13l12.6-8.2
					c2.6,1.7,5.7,2.7,9,2.7h48c9.3,0,16.8-7.5,16.8-16.8v-19C445.2,13.2,437.7,5.6,428.4,5.6z"/>
				<path id="XMLID_601_" class="st16" d="M390.3,45.2h-6.8c-0.5,0-0.9-0.4-0.9-0.9V20.9c0-0.5,0.4-0.9,0.9-0.9h6.8
					c0.5,0,0.9,0.4,0.9,0.9v23.4C391.2,44.8,390.8,45.2,390.3,45.2z"/>
				<path id="XMLID_600_" class="st16" d="M401.9,45.2h-6.8c-0.5,0-0.9-0.4-0.9-0.9V27.4c0-0.5,0.4-0.9,0.9-0.9h6.8
					c0.5,0,0.9,0.4,0.9,0.9v16.9C402.8,44.8,402.4,45.2,401.9,45.2z"/>
				<path id="XMLID_599_" class="st5" d="M413.6,45.2h-6.8c-0.5,0-0.9-0.4-0.9-0.9v-28c0-0.5,0.4-0.9,0.9-0.9h6.8
					c0.5,0,0.9,0.4,0.9,0.9v28C414.4,44.8,414.1,45.2,413.6,45.2z"/>
				<path id="XMLID_598_" class="st16" d="M425.2,45.2h-6.8c-0.5,0-0.9-0.4-0.9-0.9V24.2c0-0.5,0.4-0.9,0.9-0.9h6.8
					c0.5,0,0.9,0.4,0.9,0.9v20.1C426.1,44.8,425.7,45.2,425.2,45.2z"/>
			</g>
			<g id="XMLID_591_">
				<path id="XMLID_596_" class="st2" d="M32.7,9.4h39.8c6.1,0,11.1,5,11.1,11.1v12.5c0,2.3-0.7,4.4-1.9,6.2l5,8.5l-8.3-5.4
					c-1.7,1.1-3.8,1.7-5.9,1.7H32.7c-6.1,0-11.1-5-11.1-11.1V20.4C21.7,14.3,26.6,9.4,32.7,9.4z"/>
				<g id="XMLID_595_">
					<path id="XMLID_511_" class="st16" d="M61.2,36.7H31.5c-0.5,0-0.8-0.4-0.8-0.8c0-0.5,0.4-0.8,0.8-0.8h29.1L73,23.9
						c0.3-0.3,0.9-0.3,1.2,0.1c0.3,0.3,0.3,0.9-0.1,1.2L61.2,36.7z"/>
				</g>
				<g id="XMLID_594_">
					<path id="XMLID_467_" class="st16" d="M73.7,30.8L73.7,30.8c-0.5,0-0.8-0.4-0.8-0.8l0-4.8l-4.8,0c-0.5,0-0.8-0.4-0.8-0.8
						c0-0.5,0.4-0.8,0.8-0.8c0,0,0,0,0,0l6.5,0l0,6.5C74.5,30.5,74.1,30.8,73.7,30.8z"/>
				</g>
				<g id="XMLID_593_">
					<path id="XMLID_466_" class="st5" d="M61.2,23.1c-0.2,0-0.4-0.1-0.6-0.2c-0.3-0.3-0.3-0.9,0-1.2l3.4-3.4l-3.4-3.4
						c-0.3-0.3-0.3-0.9,0-1.2c0.3-0.3,0.9-0.3,1.2,0l4.6,4.6l-4.6,4.6C61.6,23,61.4,23.1,61.2,23.1z"/>
				</g>
				<g id="XMLID_592_">
					<path id="XMLID_449_" class="st5" d="M31.5,36.7c-0.2,0-0.3,0-0.5-0.1c-0.4-0.3-0.5-0.8-0.2-1.2l7.1-10.7l8.2,3.6l4.3-10.8
						h13.8c0.5,0,0.8,0.4,0.8,0.8c0,0.5-0.4,0.8-0.8,0.8H51.5L47,30.5l-8.5-3.7l-6.3,9.6C32,36.6,31.8,36.7,31.5,36.7z"/>
				</g>
			</g>
			<g id="XMLID_584_">
				<path id="XMLID_590_" class="st2" d="M481.8,120.7h-37.2c-9.3,0-16.8,7.5-16.8,16.8v19c0,3.5,1.1,6.7,2.9,9.4l-7.7,13l12.6-8.2
					c2.6,1.7,5.7,2.7,9,2.7h37.2c9.3,0,16.8-7.5,16.8-16.8v-19C498.6,128.2,491.1,120.7,481.8,120.7z"/>
				<path id="XMLID_589_" class="st16" d="M440.6,150.5l-3.5-2.3c-0.5-0.3-0.6-1-0.3-1.4l9.2-14c0.3-0.5,1-0.6,1.4-0.3l3.5,2.3
					c0.5,0.3,0.6,1,0.3,1.4l-9.2,14C441.7,150.7,441.1,150.9,440.6,150.5z"/>
				<path id="XMLID_588_" class="st5" d="M490.4,150.4l3.5-2.3c0.5-0.3,0.6-1,0.3-1.4l-9.2-14c-0.3-0.5-1-0.6-1.4-0.3l-3.5,2.3
					c-0.5,0.3-0.6,1-0.3,1.4l9.2,14C489.3,150.6,489.9,150.7,490.4,150.4z"/>
				<path id="XMLID_587_" class="st16" d="M451.6,137.3l-8.1,12.3c-0.2,0.3-0.1,0.7,0.1,0.9c2.4,2.4,14.6,14,20.2,14.8
					c0,0,6.7-0.9,13.1-9.8c0.3-0.4,0.4-0.9,0.4-1.4c0-0.2-0.1-0.4-0.2-0.6c-0.3-1-14.1-13.8-14.1-13.8s-4.8,0.6-6.8,0.4
					c-1.5-0.1-3.4-2-4.1-2.8C452,137.1,451.8,137.1,451.6,137.3z"/>
				<path id="XMLID_586_" class="st5" d="M479.8,137.2l7.9,12.3c0.2,0.3,0,0.6-0.2,0.7c-1.7,0.6-7.1,2.5-10.3,3.2l-12-8.2
					c0,0-4.1,5.2-8.8,2.1c-0.4-0.2-0.4-0.7-0.1-1c1.6-1.6,6.5-6.5,7.9-7.6c1.5-1.2,6.6,0.8,8.9,1.2c0.4,0.1,0.7,0,1.1-0.1
					c1.7-0.7,4.1-2.2,5-2.8C479.3,136.9,479.6,137,479.8,137.2z"/>
				<path id="XMLID_585_" class="st5" d="M450.2,158.5c-0.4-0.4-0.6-1-0.3-1.5c0.5-1,1.5-2.7,2.9-4.2c2.1-2.3,13.8,7,13.6,8.3
					c-0.3,1.3-2.5,4.6-3.7,5.1C461.6,166.7,454.2,161.6,450.2,158.5z"/>
			</g>
			<path class="st14" d="M244.4,35.3c1.3-1.9,2.1-4.3,2.1-6.8V14.9c0-6.7-5.4-12.1-12.1-12.1h-43.6c-6.7,0-12.1,5.4-12.1,12.1v13.7
				c0,6.7,5.4,12.1,12.1,12.1h43.6c2.4,0,4.6-0.7,6.5-1.9l9,5.9L244.4,35.3z M233.4,34h-41.9c-0.6,0-1.1-0.5-1.1-1.1
				c0-0.6,0.5-1.1,1.1-1.1h41.9c0.6,0,1.1,0.5,1.1,1.1C234.4,33.5,234,34,233.4,34z M190.4,27.2c0-0.6,0.5-1.1,1.1-1.1h22.1
				c0.6,0,1.1,0.5,1.1,1.1c0,0.6-0.5,1.1-1.1,1.1h-22.1C190.9,28.3,190.4,27.8,190.4,27.2z M233.4,22.6h-41.9
				c-0.6,0-1.1-0.5-1.1-1.1c0-0.6,0.5-1.1,1.1-1.1h41.9c0.6,0,1.1,0.5,1.1,1.1C234.4,22.1,234,22.6,233.4,22.6z M190.4,15.9
				c0-0.6,0.5-1.1,1.1-1.1h30.9c0.6,0,1.1,0.5,1.1,1.1c0,0.6-0.5,1.1-1.1,1.1h-30.9C190.9,17,190.4,16.5,190.4,15.9z M233.4,11.3
				h-41.9c-0.6,0-1.1-0.5-1.1-1.1c0-0.6,0.5-1.1,1.1-1.1h41.9c0.6,0,1.1,0.5,1.1,1.1C234.4,10.8,234,11.3,233.4,11.3z"/>
			<g>
				<path id="XMLID_7_" class="st14" d="M28.1,120.6h20c8.4,0,15.2,6.8,15.2,15.2V153c0,3.2-1,6.1-2.6,8.5l7,11.8l-11.4-7.5
					c-2.4,1.5-5.2,2.4-8.2,2.4h-20c-8.4,0-15.2-6.8-15.2-15.2v-17.2C12.9,127.4,19.7,120.6,28.1,120.6z"/>
				<g class="st17">
					<g>
						<path class="st16" d="M41.1,141.9c0.2,1,0.6,2,1.2,2.8l-0.6,0.6l1.3,1.3l0.6-0.6c0.8,0.6,1.8,1,2.8,1.2v0.8h1.9v-0.8
							c1-0.2,2-0.6,2.8-1.2l0.6,0.6l1.3-1.3l-0.6-0.6c0.6-0.8,1-1.8,1.2-2.8h0.8v-1.9h-0.8c-0.2-1-0.6-2-1.2-2.8l0.6-0.6l-1.3-1.3
							l-0.6,0.6c-0.8-0.6-1.8-1-2.8-1.2V134h-1.9v0.8c-1,0.2-2,0.6-2.8,1.2l-0.6-0.6l-1.3,1.3l0.6,0.6c-0.6,0.8-1,1.8-1.2,2.8h-0.8
							v1.9H41.1z M46.7,136.3c3.1-0.4,5.7,2.2,5.3,5.3c-0.3,2.2-2.1,3.9-4.2,4.1c-3,0.3-5.5-2.2-5.2-5.2
							C42.8,138.4,44.5,136.6,46.7,136.3z"/>
						<circle class="st16" cx="47.3" cy="141" r="3.3"/>
					</g>
					<g>
						<path class="st16" d="M33.5,154.5c0.1,1,0.5,1.9,1.1,2.7l-0.5,0.5l1.3,1.3l0.5-0.5c0.8,0.6,1.7,1,2.7,1.1v0.8h1.8v-0.8
							c1-0.1,1.9-0.5,2.7-1.1l0.5,0.5l1.3-1.3l-0.5-0.5c0.6-0.8,1-1.7,1.1-2.7h0.8v-1.8h-0.8c-0.1-1-0.5-1.9-1.1-2.7l0.5-0.5
							l-1.3-1.3l-0.5,0.5c-0.8-0.6-1.7-1-2.7-1.1v-0.8h-1.8v0.8c-1,0.1-1.9,0.5-2.7,1.1l-0.5-0.5l-1.3,1.3l0.5,0.5
							c-0.6,0.8-1,1.7-1.1,2.7h-0.8v1.8H33.5z M38.8,149.2c3-0.4,5.4,2.1,5.1,5.1c-0.3,2.1-2,3.7-4,3.9c-2.8,0.3-5.2-2.1-4.9-4.9
							C35.1,151.1,36.7,149.4,38.8,149.2z"/>
						<circle class="st16" cx="39.4" cy="153.6" r="3.1"/>
					</g>
					<g>
						<path class="st16" d="M21.2,139.5c0.2,1.5,0.8,2.9,1.7,4l-0.8,0.8l1.9,1.9l0.8-0.8c1.2,0.9,2.5,1.5,4,1.7v1.2h2.7v-1.2
							c1.5-0.2,2.9-0.8,4-1.7l0.8,0.8l1.9-1.9l-0.8-0.8c0.9-1.2,1.5-2.5,1.7-4h1.2v-2.7h-1.2c-0.2-1.5-0.8-2.9-1.7-4l0.8-0.8
							l-1.9-1.9l-0.8,0.8c-1.2-0.9-2.5-1.5-4-1.7v-1.2h-2.7v1.2c-1.5,0.2-2.9,0.8-4,1.7l-0.8-0.8L22,132l0.8,0.8
							c-0.9,1.2-1.5,2.5-1.7,4H20v2.7H21.2z M29.3,131.4c4.5-0.6,8.2,3.2,7.6,7.7c-0.4,3.1-3,5.6-6.1,5.9c-4.3,0.4-7.9-3.2-7.5-7.5
							C23.6,134.4,26.1,131.8,29.3,131.4z"/>
						<circle class="st16" cx="30.1" cy="138.2" r="4.7"/>
					</g>
				</g>
			</g>
			<g class="st17">
				<g>
					<path class="st2" d="M409.2,96.7v-3H408c-0.2-1.7-0.9-3.2-1.9-4.5l0.9-0.9l-2.1-2.1l-0.9,0.9c-1.3-1-2.8-1.6-4.5-1.9V84h-3v1.3
						c-1.7,0.2-3.2,0.9-4.5,1.9l-0.9-0.9l-2.1,2.1l0.9,0.9c-1,1.3-1.6,2.8-1.9,4.5h-1.3v3h1.3c0.2,1.7,0.9,3.2,1.9,4.5l-0.9,0.9
						l2.1,2.1l0.9-0.9c1.3,1,2.8,1.6,4.5,1.9v1.3h3v-1.3c1.7-0.2,3.2-0.9,4.5-1.9l0.9,0.9l2.1-2.1l-0.9-0.9c1-1.3,1.6-2.8,1.9-4.5
						H409.2z M405.5,94.5c0.5,4.8-3.5,8.7-8.3,8.3c-3.5-0.3-6.3-3.1-6.8-6.5c-0.6-4.9,3.5-9.1,8.5-8.5
						C402.5,88.2,405.2,91,405.5,94.5z"/>
					<circle class="st2" cx="398" cy="95.2" r="5.2"/>
				</g>
				<g>
					<path class="st2" d="M417.7,111v-1.9h-0.8c-0.2-1.1-0.6-2.1-1.2-2.9l0.6-0.6l-1.4-1.4l-0.6,0.6c-0.8-0.6-1.8-1-2.9-1.2v-0.8
						h-1.9v0.8c-1.1,0.2-2.1,0.6-2.9,1.2l-0.6-0.6l-1.4,1.4l0.6,0.6c-0.6,0.8-1,1.8-1.2,2.9h-0.8v1.9h0.8c0.2,1.1,0.6,2.1,1.2,2.9
						l-0.6,0.6l1.4,1.4l0.6-0.6c0.8,0.6,1.8,1,2.9,1.2v0.8h1.9v-0.8c1.1-0.2,2.1-0.6,2.9-1.2l0.6,0.6l1.4-1.4l-0.6-0.6
						c0.6-0.8,1-1.8,1.2-2.9H417.7z M415.3,109.5c0.3,3.1-2.3,5.6-5.3,5.3c-2.2-0.2-4.1-2-4.4-4.2c-0.4-3.2,2.3-5.9,5.5-5.5
						C413.3,105.5,415.1,107.3,415.3,109.5z"/>
					<circle class="st2" cx="410.5" cy="110" r="3.4"/>
				</g>
				<g>
					<path class="st2" d="M441.7,92.9v-4.3h-1.8c-0.4-2.4-1.3-4.6-2.7-6.5l1.3-1.3l-3.1-3.1l-1.3,1.3c-1.9-1.4-4.1-2.3-6.5-2.7v-1.8
						h-4.3v1.8c-2.4,0.4-4.6,1.3-6.5,2.7l-1.3-1.3l-3.1,3.1l1.3,1.3c-1.4,1.9-2.3,4.1-2.7,6.5h-1.8v4.3h1.8c0.4,2.4,1.3,4.6,2.7,6.5
						l-1.3,1.3l3.1,3.1l1.3-1.3c1.9,1.4,4.1,2.3,6.5,2.7v1.8h4.3v-1.8c2.4-0.4,4.6-1.3,6.5-2.7l1.3,1.3l3.1-3.1l-1.3-1.3
						c1.4-1.9,2.3-4.1,2.7-6.5H441.7z M436.3,89.7c0.7,6.9-5.1,12.6-11.9,11.9c-5-0.5-9.1-4.4-9.8-9.4c-0.9-7.1,5.1-13.2,12.2-12.3
						C431.9,80.5,435.8,84.6,436.3,89.7z"/>
					<circle class="st2" cx="425.5" cy="90.7" r="7.6"/>
				</g>
			</g>
			<g>
				<path id="XMLID_555_" class="st18" d="M213.9,237.6l-2,23.1c-0.1,1-0.9,1.7-1.8,1.7h-19c-1,0-1.8-0.7-1.8-1.7l-2-23.1
					c-0.2-2.5,1.7-4.6,4.2-4.6h18.2c1.5,0,2.8,0.7,3.5,1.9C213.7,235.6,214,236.6,213.9,237.6z"/>
				<path id="XMLID_552_" class="st2" d="M213.9,237.6l-2,23.1c-0.1,1-0.9,1.7-1.8,1.7h-15.7l-2-22.9c-0.2-2.5,1.8-4.6,4.3-4.6h16.5
					C213.7,235.6,214,236.6,213.9,237.6z"/>
				<g id="XMLID_399_">
					<path id="XMLID_518_" class="st2" d="M212.7,258.2H210c-0.5,0-1-0.4-1-1c0-0.5,0.4-1,1-1h2.7c1.4,0,2.6-0.8,2.8-1.9l2.1-12
						c0.1-0.7-0.2-1.2-0.4-1.5c-0.5-0.6-1.4-1-2.4-1H210c-0.5,0-1-0.4-1-1c0-0.5,0.4-1,1-1h4.8c1.5,0,3,0.6,3.8,1.7
						c0.7,0.9,1.1,2,0.9,3.1l-2.1,12C217.1,256.7,215.1,258.2,212.7,258.2z"/>
				</g>
				<path id="XMLID_400_" class="st19" d="M214.7,265.2h-28.3c-1.1,0-1.9-0.9-1.9-1.9l0,0c0-1.1,0.9-1.9,1.9-1.9h28.3
					c1.1,0,1.9,0.9,1.9,1.9l0,0C216.6,264.4,215.8,265.2,214.7,265.2z"/>
			</g>
			<g>
				<g class="st17">
					<g class="st17">
						<path class="st2" d="M70.8,109.4c-13.9,0-25.1-11.3-25.1-25.1c0-13.9,11.3-25.1,25.1-25.1C84.7,59.1,96,70.4,96,84.3
							C96,98.1,84.7,109.4,70.8,109.4z M70.8,63c-11.7,0-21.2,9.5-21.2,21.2c0,11.7,9.5,21.2,21.2,21.2c11.7,0,21.2-9.5,21.2-21.2
							C92.1,72.5,82.6,63,70.8,63z"/>
					</g>
					<g>
						<path class="st2" d="M86.2,84.3L86.2,84.3c0-0.7,0.6-1.3,1.3-1.3h2.2c0.7,0,1.3,0.6,1.3,1.3l0,0c0,0.7-0.6,1.3-1.3,1.3h-2.2
							C86.8,85.5,86.2,85,86.2,84.3z"/>
						<path class="st2" d="M50.8,84.3L50.8,84.3c0-0.7,0.6-1.3,1.3-1.3h2.2c0.7,0,1.3,0.6,1.3,1.3l0,0c0,0.7-0.6,1.3-1.3,1.3H52
							C51.3,85.5,50.8,85,50.8,84.3z"/>
					</g>
					<g>
						<path class="st2" d="M70.8,99.6L70.8,99.6c0.7,0,1.3,0.6,1.3,1.3v2.2c0,0.7-0.6,1.3-1.3,1.3l0,0c-0.7,0-1.3-0.6-1.3-1.3v-2.2
							C69.6,100.2,70.1,99.6,70.8,99.6z"/>
						<path class="st2" d="M70.8,64.2L70.8,64.2c0.7,0,1.3,0.6,1.3,1.3v2.2c0,0.7-0.6,1.3-1.3,1.3l0,0c-0.7,0-1.3-0.6-1.3-1.3v-2.2
							C69.6,64.7,70.1,64.2,70.8,64.2z"/>
					</g>
					<g>
						<path class="st2" d="M60,95.1L60,95.1c0.5,0.5,0.5,1.3,0,1.8l-1.5,1.5c-0.5,0.5-1.3,0.5-1.8,0l0,0c-0.5-0.5-0.5-1.3,0-1.8
							l1.5-1.5C58.7,94.6,59.5,94.6,60,95.1z"/>
						<path class="st2" d="M85,70.1L85,70.1c0.5,0.5,0.5,1.3,0,1.8l-1.5,1.5c-0.5,0.5-1.3,0.5-1.8,0l0,0c-0.5-0.5-0.5-1.3,0-1.8
							l1.5-1.5C83.7,69.6,84.6,69.6,85,70.1z"/>
					</g>
					<g>
						<path class="st2" d="M60,73.4L60,73.4c-0.5,0.5-1.3,0.5-1.8,0l-1.5-1.5c-0.5-0.5-0.5-1.3,0-1.8l0,0c0.5-0.5,1.3-0.5,1.8,0
							l1.5,1.5C60.5,72.1,60.5,72.9,60,73.4z"/>
						<path class="st2" d="M85,98.5L85,98.5c-0.5,0.5-1.3,0.5-1.8,0l-1.5-1.5c-0.5-0.5-0.5-1.3,0-1.8l0,0c0.5-0.5,1.3-0.5,1.8,0
							l1.5,1.5C85.5,97.2,85.5,98,85,98.5z"/>
					</g>
				</g>
				<g class="st17">
					<circle class="st16" cx="70.8" cy="84.3" r="2.1"/>
					<path class="st5" d="M70.8,81.7L70.8,81.7c-0.2,0-0.4-0.2-0.4-0.4V70.6c0-0.2,0.2-0.4,0.4-0.4l0,0c0.2,0,0.4,0.2,0.4,0.4v10.6
						C71.3,81.5,71.1,81.7,70.8,81.7z"/>
					<path class="st5" d="M73.7,84.3L73.7,84.3c0-0.2,0.2-0.4,0.4-0.4h7c0.2,0,0.4,0.2,0.4,0.4l0,0c0,0.2-0.2,0.4-0.4,0.4h-7
						C73.9,84.7,73.7,84.5,73.7,84.3z"/>
				</g>
			</g>
		</g>
		<g>
			<path id="XMLID_401_" class="st2" d="M331.5,260.6H230.4l-20-62.9c-1-3.2,1.4-6.4,4.7-6.4h90.8c2.1,0,4,1.4,4.7,3.4L331.5,260.6z
				"/>
			<path id="XMLID_402_" class="st20" d="M329.9,260.6h-96.8l-19.8-61.8c-1-3.1,1.3-6.3,4.6-6.3h86.6c2.1,0,4,1.4,4.6,3.4
				L329.9,260.6z"/>
			<path id="XMLID_550_" class="st21" d="M269.2,204.3h-44.1c-0.7,0-1.2-0.5-1.2-1.2l0,0c0-0.7,0.5-1.2,1.2-1.2h44.1
				c0.7,0,1.2,0.5,1.2,1.2l0,0C270.4,203.7,269.8,204.3,269.2,204.3z"/>
			<path id="XMLID_549_" class="st21" d="M276,209.8h-49.2c-0.7,0-1.2-0.5-1.2-1.2l0,0c0-0.7,0.5-1.2,1.2-1.2H276
				c0.7,0,1.2,0.5,1.2,1.2l0,0C277.2,209.2,276.7,209.8,276,209.8z"/>
			<path id="XMLID_547_" class="st21" d="M271.4,215.3h-42.8c-0.7,0-1.2-0.5-1.2-1.2l0,0c0-0.7,0.5-1.2,1.2-1.2h42.8
				c0.7,0,1.2,0.5,1.2,1.2l0,0C272.6,214.7,272.1,215.3,271.4,215.3z"/>
			<path id="XMLID_546_" class="st21" d="M264.3,220.8h-34c-0.7,0-1.2-0.5-1.2-1.2l0,0c0-0.7,0.5-1.2,1.2-1.2h34
				c0.7,0,1.2,0.5,1.2,1.2l0,0C265.5,220.2,265,220.8,264.3,220.8z"/>
			<path id="XMLID_545_" class="st21" d="M281.3,226.3h-49.2c-0.7,0-1.2-0.5-1.2-1.2l0,0c0-0.7,0.5-1.2,1.2-1.2h49.2
				c0.7,0,1.2,0.5,1.2,1.2l0,0C282.5,225.7,282,226.3,281.3,226.3z"/>
			<path id="XMLID_544_" class="st21" d="M276.7,231.8h-42.8c-0.7,0-1.2-0.5-1.2-1.2l0,0c0-0.7,0.5-1.2,1.2-1.2h42.8
				c0.7,0,1.2,0.5,1.2,1.2l0,0C277.9,231.2,277.4,231.8,276.7,231.8z"/>
			<path id="XMLID_542_" class="st21" d="M286.6,242.8h-49.2c-0.7,0-1.2-0.5-1.2-1.2l0,0c0-0.7,0.5-1.2,1.2-1.2h49.2
				c0.7,0,1.2,0.5,1.2,1.2l0,0C287.8,242.2,287.3,242.8,286.6,242.8z"/>
			<path id="XMLID_539_" class="st21" d="M288.4,248.3h-49.2c-0.7,0-1.2-0.5-1.2-1.2l0,0c0-0.7,0.5-1.2,1.2-1.2h49.2
				c0.7,0,1.2,0.5,1.2,1.2l0,0C289.6,247.7,289,248.3,288.4,248.3z"/>
			<path id="XMLID_405_" class="st21" d="M314.5,248.3h-15.9c-1.5,0-2.8-1-3.2-2.4L282.2,204c-0.7-2.2,0.9-4.4,3.2-4.4h15.9
				c1.5,0,2.8,1,3.2,2.4l13.2,41.9C318.5,246,316.8,248.3,314.5,248.3z"/>
			<path id="XMLID_403_" class="st2" d="M340,265.2h-110c-1.8,0-3.3-1.5-3.3-3.3l0,0c0-1.8,1.5-3.3,3.3-3.3h110
				c1.8,0,3.3,1.5,3.3,3.3l0,0C343.3,263.8,341.8,265.2,340,265.2z"/>
			<g id="XMLID_404_">
				<path id="XMLID_419_" class="st3" d="M342.4,178.3c-1,0-1.9-0.5-2.4-1.4l-3.7-6.4c-0.4-0.7-0.5-1.4-0.3-2.1
					c0.2-0.7,0.7-1.3,1.4-1.7l10.2-5.4c1.3-0.7,3-0.2,3.7,1.1l3.5,6.4c0.4,0.6,0.4,1.4,0.2,2.1c-0.2,0.7-0.7,1.3-1.3,1.6l-10,5.4
					C343.3,178.2,342.8,178.3,342.4,178.3z M348.9,162.2c-0.2,0-0.5,0.1-0.7,0.2l-10.2,5.4c-0.4,0.2-0.6,0.5-0.7,0.9
					c-0.1,0.4-0.1,0.8,0.1,1.1v0l3.7,6.4c0.4,0.7,1.3,1,2,0.6l10-5.4c0.3-0.2,0.6-0.5,0.7-0.9c0.1-0.4,0.1-0.8-0.1-1.1l-3.5-6.4
					C349.9,162.5,349.4,162.2,348.9,162.2z"/>
			</g>
			<path id="XMLID_538_" class="st2" d="M300.6,244.8c-0.7,0.9-1.3,1.5-1.3,1.5s-5.3-4-6.8-4.4c-1.5-0.4-4.6,0.8-6.4,0.9
				c-1.8,0.1-2-1-2-1s-6.9,2.9-8,3.1c-1.1,0.3-1.9-0.1-1.2-1.9c0.2-0.4,0.6-1,1.3-1.7l0,0c2.3-2.7,7.2-6.9,8.9-7.7
				c2.2-1.1,5.2-2.6,7.7-1.7c2.4,0.9,10.3,6.8,10.3,6.8C303.4,240.8,301.8,243.3,300.6,244.8z"/>
			<path id="XMLID_533_" class="st7" d="M302.3,239.1l-1.6,5.7c-0.7,0.9-1.3,1.5-1.3,1.5s-5.3-4-6.8-4.4c-1.5-0.4-4.6,0.8-6.4,0.9
				c-1.8,0.1-2-1-2-1s-6.9,2.9-8,3.1c-1.1,0.3-1.9-0.1-1.2-1.9c0.2-0.4,0.6-1,1.3-1.7c-0.6,0.8-1.2,1.6-0.8,2.7
				c0.5,1.3,7.9-2.3,13.2-5.5c0.1,0,0.5-0.3,0.7,0c0.1,0.2-0.2,0.5-0.3,0.6c-0.9,1-5.4,1.3-4.5,2.7c1.3,2,5.9-1.7,8.4-0.9
				c2.5,0.8,5.7,3.1,5.7,3.1S300,239.8,302.3,239.1z"/>
			<path id="XMLID_406_" class="st6" d="M298.5,246.3c0,0,26.2,22.9,45.7,25.2c19.6,2.3,52.6-34.8,52.6-34.8s-2.1-19.8-14.3-17.5
				c-12.2,2.3-28.6,31.7-35.6,33.1c-7.1,1.4-43.9-14.2-43.9-14.2s-1,0.7-2.3,2.8C299.4,243.1,298.5,246.3,298.5,246.3z"/>
			<path id="XMLID_407_" class="st2" d="M387.5,133.6c-7.2-8.2-17.7-9.1-25.9-8.2c-10.7,1.2-20,8.4-23.1,18.7
				c-1.3,4.5-1.6,9.7,0.5,15.4c6.7,18.4,13.6,30.1,20.2,33.6c2.5,1.3,7.2,0.4,12.3-1.3c0.7-0.2,1.4,0,1.7,0.7l2.1,4l18.8-4.1
				c0,0-2.4-5.2-3.7-10.8C393.2,178.3,400.6,148.5,387.5,133.6z"/>
			<path id="XMLID_408_" class="st1" d="M349.5,159.8c2.3-0.2,4.6,1,5.5,3.2c1.5,3.7,3.9,8.8,5.8,10.5c0.4,0.3,1.2,0.5,2.1,0
				c0.8-0.4,1-1.1,0.9-1.6c-0.2-1.6-1.3-5-2.2-7.3c-1.1-2.9,0.2-6.1,3.7-6.8c0.6-0.1,2.2-0.1,3.1,0.2c5.6,1.7,1.7,10.4,1.6,15
				c-0.1,3.2,3.8,10.7,5.5,11.3c5.6,2.2,14.1,0.2,18.6-5.3c4.5-5.6,5.5-24.1,3-35.2c-2.5-11.1-11.3-17.4-14.3-18.1
				c-1.5-0.4-2.6-0.4-3.5-0.3c-0.9,0.1-1.8-0.2-2.5-0.8c-3-2.6-11.8-8.5-25.8-2.4c-17.5,7.5-20.4,23.6-20.1,30.9
				c0.2,4.7,3.9,4.4,6.5,3.6c1.4-0.5,3-0.1,4.1,0.9C343,158.8,345.6,160.1,349.5,159.8z"/>
			<path id="XMLID_409_" class="st9" d="M374.7,199.6c0,0-1.6-1.8-1-2.9c0.8-1.4,9-7.9,18.7-7.6c1.5,0.1,3.3,0.1,5.1,4
				c1.8,3.9,2.2,6.5,2.2,6.5H374.7z"/>
			<path id="XMLID_509_" class="st5" d="M419.5,316.2c-0.6,0.1-1.2,0.3-1.9,0.4c-8.2,1.5-21.5,1.7-21.5,1.7
				c-26.2-0.5-37.9-14.6-42.2-21.9c-1.5-2.6-2.1-4.3-2.1-4.3c1.5-0.8,6.7-5.6,8.7-12.1c2-6.5-0.1-22-3.5-28
				c-1.9-3.2-7.4-9.8-10.9-16.8c-2.8-5.7-4.3-11.7-1.2-16.2c7.7-11.3,19.9-17.4,19.9-17.4s22.3-8.9,41.4-6.9
				c12.1,1.3,22.8,7,25.7,22.1C439.4,256.1,419.5,316.2,419.5,316.2z"/>
			<path id="XMLID_503_" class="st9" d="M367.9,271.5c-1.6,13.9-9.1,21.5-13.9,24.9c-1.5-2.6-2.1-4.3-2.1-4.3
				c1.5-0.8,6.7-5.6,8.7-12.1c2-6.5-0.1-22-3.5-28c-1.9-3.2-7.4-9.8-10.9-16.8l1.5-0.6l9-1.5l4.5,3.7
				C361.2,237,370.2,250.6,367.9,271.5z"/>
			<path id="XMLID_484_" class="st22" d="M419.5,316.2c-0.6,0.1-1.2,0.3-1.9,0.4c1.7-8.8,4.2-22.7,7.7-42.8
				c6.8-39.7-0.3-59.8-4.3-67c-3.2-5.8-9.5-8.9-14.7-12c12.1,1.3,22.8,7,25.7,22.1C439.4,256.1,419.5,316.2,419.5,316.2z"/>
			<path id="XMLID_411_" class="st2" d="M364.5,393.7c0,0-1.9,2.2-4.7,2.7c-3.2,0.5-5.5-1-5.5-1l-1.5-4.2L363,389L364.5,393.7z"/>
			<path id="XMLID_412_" class="st2" d="M311.8,399c0,0-2.2,1.9-5.1,1.9c-3.2,0-5.3-1.9-5.3-1.9l-0.8-4.4H311L311.8,399z"/>
			<path id="XMLID_514_" class="st3" d="M363.2,389.5c-0.7,0.3-1.4,0.6-2.1,0.8c-3.8,1.3-8.1,1.8-8.1,1.8c-8.3-13.5-24-65.2-24-65.2
				c-2-8.3,4-11.7,9.2-12c1.8-0.1,3.5,0.2,4.8,0.7c5,2.1,12.3,16.2,12.3,16.2s2.2,4.9,4.5,14.9C362.2,356.7,363.2,389.5,363.2,389.5
				z"/>
			<path id="XMLID_504_" class="st16" d="M363.2,389.5c-0.7,0.3-1.4,0.6-2.1,0.8c-0.5-4-1.3-10.4-2.4-20.6
				c-2.6-22.8-17-49-20.4-54.8c1.8-0.1,3.5,0.2,4.8,0.7c5,2.1,12.3,16.2,12.3,16.2s2.2,4.9,4.5,14.9
				C362.2,356.7,363.2,389.5,363.2,389.5z"/>
			<path id="XMLID_513_" class="st16" d="M384.1,317.1c-0.1,4.7-1.3,12.3-8.4,14.4c-10.6,3.2-18.4,1.4-30.7-0.7
				c-10.3-1.8-26.5-7.8-31.5-9.7c-0.6-0.2-1.3,0.3-1.2,1c2.3,11.5,0.7,33.8-0.5,40.3c-1.3,6.9-0.2,32.9-0.2,32.9s-1.7,0.5-3.5,0.8
				c-0.7,0.1-1.4,0.2-2,0.2c-2.7,0-5.9-0.5-5.9-0.5s-11.1-43.7-12.6-68.1c-1.5-24.4,0.9-26.5,12-31.6c11.1-5.2,52.2-3.9,52.2-3.9
				l0,0c0.1,0.4,2.9,8.1,11.2,15C367.9,311.3,374.8,315.1,384.1,317.1z"/>
			<path id="XMLID_505_" class="st4" d="M384.1,317.1c-0.1,4.7-1.3,12.3-8.4,14.4c-10.6,3.2-18.4,1.4-30.7-0.7
				c-10.3-1.8-26.5-7.8-31.5-9.7c-0.6-0.2-1.3,0.3-1.2,1c2.3,11.5,0.7,33.8-0.5,40.3c-1.3,6.9-0.2,32.9-0.2,32.9s-1.7,0.5-3.5,0.8
				c-0.3-1.7-0.7-4.2-1.2-7.1c-0.9-6.1-0.2-22.5,0-34.1c0.2-11.6-3.7-21.5-3.9-33c-0.2-11.4,1.3-17.1,29.3-11.7
				c17.9,3.5,26.7-0.1,30.6-3C367.9,311.3,374.8,315.1,384.1,317.1z"/>
			<g id="XMLID_415_">
				<path id="XMLID_515_" class="st23" d="M396.1,341.9v62.7c0,2.2-1.8,4-4,4c-0.9,0-1.7-0.3-2.4-0.8c-1-0.7-1.6-1.9-1.6-3.3v-62.7
					H396.1z"/>
				<path id="XMLID_506_" class="st2" d="M396.1,344.6v59.8c0,1.9-1.6,3.9-3.5,4.2c-1,0.1-1.8-0.1-2.6-0.5c-0.1-0.2-0.3-0.5-0.4-0.8
					v-61.1c0-0.9,0.7-1.7,1.7-1.7H396.1z"/>
				<path id="XMLID_512_" class="st23" d="M401.2,339.8c0,0.3,0,0.6-0.1,0.9c-0.2,0.6-0.5,1.2-0.9,1.6c-0.6,0.6-1.5,1-2.5,1h-12.1
					c-1.9,0-3.5-1.6-3.5-3.5c0-1,0.4-1.8,1-2.5c0.6-0.6,1.5-1,2.5-1h12.1C399.7,336.3,401.2,337.9,401.2,339.8z"/>
				<path id="XMLID_508_" class="st24" d="M401.1,340.6c-0.2,0.6-0.5,1.2-0.9,1.6c-0.6,0.6-1.5,1-2.5,1h-11.5
					c0.2-0.6,0.5-1.2,0.9-1.6c0.6-0.6,1.5-1,2.5-1H401.1z"/>
				<path id="XMLID_510_" class="st2" d="M444.2,230.3c0,0,0,0.1,0,0.1c0,0.4-0.1,0.7-0.2,1.2c-1,4.1-4.4,12.1-4.9,24.1
					c-0.4,8.5,0.1,33.1-0.6,43.6c-0.6,10.5-4.2,26-15.2,33.9c-11.1,8.4-33.5,6.9-47,6.6c-13.6-0.3-47.2-6.4-49.9-11.4
					c-0.6-1.1-0.8-2.1-0.6-2.9c0.1-0.8,0.5-1.4,1-2c1.3-1.3,3.2-1.7,5-1.2c5.5,1.4,21.8,4.5,29.1-4.8c8.9-11.3,7.8-24.3,11.6-51.7
					c3.6-26,11.7-33.9,25.1-39.1c14.3-5.5,37.3-3.1,43.1-1.4C442.9,225.9,444.4,228,444.2,230.3z"/>
				<path id="XMLID_516_" class="st2" d="M439,412.4c0,0.8-0.7,1.5-1.5,1.5h-91c-0.8,0-1.5-0.7-1.5-1.5c0-0.7,0.5-1.3,1.2-1.5
					l45.7-7.4l11.5,1.9l34.2,5.5C438.5,411,439,411.7,439,412.4z"/>
				<path id="XMLID_502_" class="st23" d="M372.1,410.5c0,0,0.3,0.3-0.6,1.1c-0.4,0.3-4.5,1.3-9.1,2.2h-15.8c-0.8,0-1.5-0.7-1.5-1.5
					c0-0.7,0.5-1.3,1.2-1.5l45.7-7.4L372.1,410.5z"/>
			</g>
			<path id="XMLID_420_" class="st3" d="M301.4,399c0,0,2.7,1.1,5.2,1.1c3,0,5.1-1.1,5.1-1.1s5.3,6.7,2.5,14.3
				c-0.1,0.4-0.5,0.6-1,0.6h-35.5c-0.4,0-0.8-0.3-0.8-0.8c0-0.9,0.3-2.3,2.5-2.9c3.3-1,6.7-1.6,9.2-2.5c2.5-0.9,6.2-4.6,8.2-5.3
				C299.5,401.5,301.4,399,301.4,399z"/>
			<path id="XMLID_421_" class="st3" d="M354.3,395.4c0,0,2.9,0.6,5.3,0.2c2.9-0.5,4.9-1.9,4.9-1.9s6.3,5.8,4.7,13.7
				c-0.1,0.4-0.4,0.7-0.8,0.8c0,0-18.7,4.2-25.1,5.1c-3.9,0.6-10,0.6-10,0.6c-0.5,0-0.8-0.2-0.9-0.7c-0.2-0.9,0-2.3,2-3.3
				c3.1-1.5,6.3-2.6,8.7-3.9c2.4-1.3,5.4-5.6,7.3-6.6C352.8,398.2,354.3,395.4,354.3,395.4z"/>
			<path id="XMLID_536_" class="st2" d="M283,261.8c0,0-3.6-1.5-5.5-2.2c-0.8-0.3-1.5-0.5-2.1-0.6c-0.8-0.2-1.7-0.3-2.5-0.3h-20.7
				c-0.6,0-1.1-0.5-1.1-1.1c0-0.8,0.4-1.6,1.1-2l2.2-1.4l6.6-4.3c3.3-2.1,5.7-2.2,9.6-1.9c0.7,0.1,3.5,1.3,4.1,1.4
				c3.9,1.3,4.7,1.9,7.3,2.8c1,0.4,1.7,0.6,2.2,0.7c0.7,0.2,0.9,0.1,0.9,0.1C285.8,258.3,283,261.8,283,261.8z"/>
			<path id="XMLID_534_" class="st7" d="M283.1,261.7c0,0-0.1,0.1-0.1,0c-0.5-0.2-3.7-1.5-5.5-2.2c-0.6-0.2-1.2-0.4-1.8-0.5
				c-0.8-0.2-2-0.3-2.8-0.3h-20.6c-0.6,0-1.2-0.5-1.2-1.1c0-0.8,0.4-1.5,1.1-1.9l2.2-1.4c-2.1,1.6-2.4,2.8-1.4,2.9
				c0.8,0.1,2.8-0.1,7.9-1.5c0.1,0,0.2,0.1,0.1,0.2c-1.2,0.7-0.7,2.2,0.7,2.1c0.8,0,4.5-0.3,5.3-0.3c3.2-0.2,7.9-0.5,8.8-0.3
				c1.8,0.3,3.2,0.9,4.5,1.6c0.9,0.5,1.7-0.5,2-1.5c0.5-1.3,1.1-3.1,1.8-4.5c0.7,0.2,0.9,0.1,0.9,0.1
				C285.7,257.9,283.4,261.2,283.1,261.7z"/>
			<path id="XMLID_423_" class="st5" d="M364.1,212.3c-2.7-1.7-10.9-6.2-21.5,10.3c-10.6,16.5-15.3,26.7-19,28.9
				c-3.7,2.2-16.5,2.9-19.8,2.9s-19-1.8-19-1.8s-2.3,5-2.7,9.2c0,0,11.7,9.6,39,9.7c27.3,0.1,48-41.1,48.9-46.1
				C370.9,220.4,370.6,216.3,364.1,212.3z"/>
			<g id="XMLID_424_">
				<path id="XMLID_417_" class="st3" d="M337.8,173.9c-0.2,0-0.5-0.1-0.6-0.3c-0.2-0.3,0-0.7,0.3-0.9l23.7-12.1
					c2.7-1.4,8.2-4.2,12.2,1.8c0.2,0.3,0.1,0.7-0.2,0.9c-0.3,0.2-0.7,0.1-0.9-0.2c-3.2-4.7-7-3.2-10.6-1.4L338,173.9
					C337.9,173.9,337.8,173.9,337.8,173.9z"/>
			</g>
			<path id="XMLID_482_" class="st2" d="M361.5,162.1l2.9,9.1c0,0,2.2,2.1,4.4-0.3c2.1-2.5,4-11,0.1-12.5
				C364.9,157,362.5,159.1,361.5,162.1z"/>
			<path id="XMLID_507_" class="st23" d="M444.2,230.3c0,0,0,0.1,0,0.1c0,0.4-0.1,0.7-0.2,1.2c-1.7,0.7-3.7,0.5-5.9,0.1
				c-13.5-2.6-40.2-6.5-53.1,9.9c-3,3.9-6.7,22.4-7,25.3c-1.4,11.5-3.3,31.4-6.1,41.3c-3.4,11.7-9.4,16.8-15.2,18.4
				c-5.9,1.6-17.4,2.3-30.8-1.1c0.1-0.8,0.5-1.4,1-2c1.3-1.3,3.2-1.7,5-1.2c5.5,1.4,21.8,4.5,29.1-4.8c8.9-11.3,7.8-24.3,11.6-51.7
				c3.6-26,11.7-33.9,25.1-39.1c14.3-5.5,37.3-3.1,43.1-1.4C442.9,225.9,444.4,228,444.2,230.3z"/>
		</g>
		<g>
			<g id="XMLID_443_">
				<path id="XMLID_517_" class="st2" d="M162.8,96.2c-2.2,0.6-2.3,8-3,10.3c-0.7,2.3-3.6,11.2-8.5,12c-5,0.8-8,0.8-8.1,1.6
					c-0.1,0.4-0.2,2.1-0.2,3.7c-0.1,1.9-0.2,3.7-0.2,3.7l-5,4.8L133,132l-11.1-4.8c0,0,1-12.1,0.7-14c-0.2-1.2-3.5-9.9-5.6-18.2
					c-1.3-4.9-2.1-9.6-1.7-12.7c1.1-8.4,2.5-17.1,8.2-20.8c5.7-3.7,40.5-15,38.1,10.8c0,0,2.1,15.2,3.5,18
					C166.5,92.9,165,95.6,162.8,96.2z"/>
				<path id="XMLID_481_" class="st7" d="M142.9,123.7c-0.1,1.9-0.2,3.7-0.2,3.7l-5,4.8L133,132l-11.1-4.8c0,0,1-12.1,0.7-14
					c-0.2-1.2-3.5-9.9-5.6-18.2l1.1-4.9c0,0,9.6,0.1,10,0.2c0.4,0.1,2.6,6.2,2.6,6.5c-0.1,0.3-2.6,5.7-2.6,5.7s-1.3,7.7-1.8,13.7
					c-0.2,3.2,1.6,6.1,4.5,7.3c1.6,0.7,3.5,1.3,5.4,1.6C139.2,125.6,141.6,124.5,142.9,123.7z"/>
				<path id="XMLID_447_" class="st1" d="M128.9,88.8c0,0-6,16,2.1,26c8.1,10,24.7,7.2,27.2,5.5c2.5-1.7,11.8-14.5,5.6-21.7
					c-6.2-7.2-16.3-1.5-16.3-1.5s-6.1,4-7.8,3.5c-1.7-0.5-5-6.9-2.3-17.3c0.1-0.6,0.7-0.9,1.3-1c2.2,0,7.4-1.2,8.4-11.7
					c0.1-0.9,0.9-1.5,1.8-1.4c3,0.5,9.2,1.6,10.4,2.1c0,0,1,0.3,1.9,0.8c0.3,0.2,0.5,0.4,0.6,0.8c0.2,1.1,0.5,3.5,0.6,4
					c0.1,0.7,1,6.1,1,6.1s1.8-0.8,2-2.6c0.3-1.9,0-6.1,0.5-6.9c0.5-0.9,3.2-1.2,4-3.3c1.6-4.7,6-23.5-10.7-16.5
					c-2.2,0.9-4.3,2.2-6,2.3c-2.2,0.2-3.9-2.1-8.3-3.1c-6.1-1.5-34.1-3.1-34.2,25c-0.2,28,12.1,36,12.1,36S125.3,91.2,128.9,88.8z"
					/>
				
					<ellipse id="XMLID_446_" transform="matrix(5.302281e-02 -0.9986 0.9986 5.302281e-02 63.7007 230.5381)" class="st25" cx="153.4" cy="81.7" rx="1.4" ry="1"/>
				<path id="XMLID_445_" class="st26" d="M156.1,75.7c0,0-5-2.3-7,3.3"/>
				<path id="XMLID_444_" class="st27" d="M147.8,104.6c0,0,3.9,1.8,10.4,0.6"/>
			</g>
			<path id="XMLID_418_" class="st2" d="M219.4,108.6c-1-0.9-1.9-1.1-2.8-0.7c-0.1-0.5-0.4-1-0.8-1c-1,0-3.8,7.4-3.8,7.4l0,0
				c-0.7,1.7-0.8,2.8-1.1,3.8c-1,3.4,0.5,7.7,0.5,9.3c0,1.6-2.6,7.3-2.6,7.3l6.1,4.4c0,0,9.4-12.7,9.3-15.2S221.6,110.7,219.4,108.6
				z"/>
			<path id="XMLID_439_" class="st28" d="M208.9,125.9l0.8,0.9c0.1,0.1,0.3,0.2,0.4,0.3l5.3,2.1c0.4,0.2,0.8,0.1,1-0.4l15.1-34.1
				c0.1-0.2,0.2-0.7-0.1-0.9l-1.1-0.8l-4.3,2.1L208.9,125.9z"/>
			<path id="XMLID_438_" class="st16" d="M214.8,128.2l-5.3-1.9c-0.6-0.3-0.9-0.8-0.7-1.4l14.4-32.5c0.3-0.6,0.9-1,1.6-0.9l5.2,1.2
				c0.5,0.1,0.8,0.6,0.6,1.1l-15.1,33.9C215.5,128.1,215.1,128.3,214.8,128.2z"/>
			<path id="XMLID_398_" class="st29" d="M215.1,126.2l-4.4-1.5c-0.5-0.2-0.7-0.7-0.5-1.3l13.4-30.3c0.3-0.6,0.8-0.9,1.4-0.9
				l4.4,0.9c0.4,0,0.7,0.5,0.5,1l-14,31.6C215.7,126.1,215.4,126.2,215.1,126.2z"/>
			<path id="XMLID_437_" class="st2" d="M224.9,109.1c0,0-2.8-2.3-5.2-1c-2.4,1.3-5.6,8.1-5.7,11.3c-0.2,3.2,4.6,6.8,4.6,6.8
				l-4.9,11.2l2.8,0.9c0,0,1.9-4.1,3.6-6c1.7-1.9,6-6,9-11.3C232,115.6,226.9,110.2,224.9,109.1z"/>
			<path id="XMLID_436_" class="st7" d="M217.3,137.7c0,0-7.5,28-16.8,41.5c-7.3,10.5-11.3,14.3-24.5,0.8
				c-13.2-13.4-24-26.7-27.9-32.5c-2.3-3.4-2-9.7,0.8-13.7c1.9-2.8,5-4.4,9.2-3.2c0,0,8.9,3.9,19.2,17c10,12.7,10.9,14.1,12.2,13.7
				c1.3-0.3,7.3-11.2,11.2-16.6c4.1-5.8,8-11.7,8-11.7s1,0,2.2,0.2c1,0.1,2.1,0.4,2.9,0.8C215.6,135.3,217.3,137.7,217.3,137.7z"/>
			<path id="XMLID_435_" class="st2" d="M210.7,133.3c-7.3,8.6-17.2,33.2-21.1,33.4c-4.1,0.2-7.8-7.2-14.2-14.1
				c-6.3-6.9-17.9-12.1-17.9-12.1l-8.7-6.6c1.9-2.8,5-4.4,9.2-3.2c0,0,8.9,3.9,19.2,17c10,12.7,10.9,14.1,12.2,13.7
				c1.3-0.3,7.3-11.2,11.2-16.6c4.1-5.8,8-11.7,8-11.7S209.5,133.1,210.7,133.3z"/>
			<polygon id="XMLID_434_" class="st2" points="184.1,395.7 187.6,401.6 197.6,401.4 195.4,393.7 			"/>
			<path id="XMLID_433_" class="st2" d="M143.8,382.7c0,0-1.2,4.4-1.7,6.7c-0.5,2.3-0.4,3.7-0.4,3.7l10.8-0.3c0,0,2.1-5.5,2.5-6.4
				L143.8,382.7z"/>
			<path id="XMLID_432_" class="st3" d="M164.8,230.8c0,0,14.3,33.3,16.5,59.7s-20.9,85.4-26.3,97.2c0,0-8.3-1.9-11.9-3.9
				c-0.1-1.9-0.1-2.5-0.1-4.5c-0.2-13.5,7-49,14.4-62.4c0,0,0.2-16.7-8.3-30c-8.5-13.3-17.8-38.7-20.5-47.3L164.8,230.8z"/>
			<path id="XMLID_431_" class="st16" d="M196.2,395.4c-4.4,1.7-7.7,1.8-9.8,1.6c-1.8-0.2-2.8-0.7-2.8-0.7
				c-13.6-14.1-28.7-50.2-33.2-64.1c-3.2-9.8,0-24.8-25.7-47.8c-25.7-23-24.3-43.4-24.3-43.4l17.6-1.2l29.9-2
				c4.6,10.4,17.1,47.7,21.1,56.2c4,8.6,15.2,48.6,18.2,62C190.3,369.7,196.2,395.4,196.2,395.4z"/>
			<path id="XMLID_430_" class="st4" d="M186.4,397c-1.8-0.2-2.8-0.7-2.8-0.7c-13.6-14.1-28.7-50.2-33.2-64.1
				c-3.2-9.8,0-24.8-25.7-47.8c-25.7-23-24.3-43.4-24.3-43.4l17.6-1.2c0.1,6.7,2,29.5,20.1,52.2c0,0,13.9,13.2,16.8,24.5
				c2.9,11.3,0.2,15.7,7.8,32.5C169.7,364.6,180.1,387.9,186.4,397z"/>
			<path id="XMLID_548_" class="st2" d="M70.2,263.6c0,1.3-1.3,1.6-1.3,1.6H42.8c0,0-3.2-0.2-1.8-2.2c0.1-0.1,0.1-0.2,0.2-0.3
				c1.8-1.5,5.6-1.5,8-1.7c0.8-0.1,1.6-0.5,2.1-1.2c0.7-1,1.4-2.1,1.7-2.3c0.2-0.1,0.5-0.2,0.6-0.3c0.9-1.6,1.6-2.9,1.6-2.9L65,255
				l-1.1,2.2l0,0c-0.2,0.4-0.1,0.8,0.3,1.1c0.7,0.6,1,1.5,1.1,2.2c0.1,0.8,0.8,1.4,1.6,1.4h2.1C68.9,261.9,70.2,262.3,70.2,263.6z"
				/>
			<path id="XMLID_463_" class="st7" d="M65,255l-1.1,2.2c-1.9,0-5.9,0.1-8.7-0.3l-0.6,0.9c0,0-0.6,0.2-1.3,1.3
				c-0.3,0.5-1,1.6-1.3,1.9c-0.2,0.3-1,1.1-2,1.1c-1,0-6.4,0.1-9,0.9c0.1-0.1,0.1-0.2,0.2-0.3c1.8-1.5,5.6-1.5,8-1.7
				c0.8-0.1,1.6-0.5,2.1-1.2c0.7-1,1.4-2.1,1.7-2.3c0.2-0.1,0.5-0.2,0.6-0.3c0.9-1.6,1.6-2.9,1.6-2.9L65,255z"/>
			<path id="XMLID_428_" class="st3" d="M187.1,400.8c0,0-4.5,5.3-1.8,12.5c0.1,0.3,0.5,0.6,0.8,0.6h37.7c0.4,0,0.9-0.3,0.9-0.7
				v-0.8c0-0.7-0.5-1.4-1.1-1.7l-8.5-3.2c-0.2-0.1-0.4-0.2-0.6-0.2l-5.4-2.4c-0.5-0.2-1.1-0.4-1.7-0.6l-3.2-0.7
				c-0.9-0.2-1.8-0.5-2.7-0.9l-4.2-2c0,0-3.1,0.8-5.3,0.7C189.9,401.4,187.1,400.8,187.1,400.8z"/>
			<path id="XMLID_520_" class="st2" d="M164.8,230.8c-24.4,12.5-57.4,10.7-63.4,10.2c-0.6,0-1-0.1-1-0.1
				c-12.1-25.9-20.7-78.1-16.7-92.7c0.4-1.5,1-2.9,1.7-4.2c6-11.4,21.5-15.6,29.9-17.1c0.8-0.1,1.6-0.2,2.4-0.2
				c0.6,0,1.2,0.1,1.8,0.1c4.3,0.5,9.1,2.3,17.3,2.3c3.7,0,5.7-1.1,7.9-1.5c0.4-0.1,0.9-0.1,1.3-0.2c0.6,0,1.2,0,1.9,0.1
				c9.7,1.8,17.4,4.9,18.3,13.2c1.9,17.4-2,40.9-4.3,52.4C159.5,204.6,164.8,230.8,164.8,230.8z"/>
			<path id="XMLID_426_" class="st30" d="M101.4,241.1c-0.6,0-1-0.1-1-0.1c-12.1-25.9-20.7-78.1-16.7-92.7c0.4-1.5,1-2.9,1.7-4.2
				c7.6,2.7,14.9,8.8,18.9,17.9c0,0,0.9,16.9-3.8,32.4C94.5,213.8,100.4,234.8,101.4,241.1z"/>
			<path id="XMLID_425_" class="st3" d="M142.1,389.4c0,0-7.1,3.5-6.7,12.1c0,1,0.6,1.8,1.4,2.3c3.6,2,13.6,7.5,17.5,9.5
				c0.6,0.3,1.3,0.5,1.9,0.5c2.9,0,11.4,0,14.5,0c0.8,0,1.5-0.8,1.3-1.6c-0.3-1.1-1.5-2.6-5.3-3.7c-0.6-0.2-1.2-0.5-1.8-1
				c-1.7-1.3-5.3-4.2-7-5.3c-2.2-1.5-5.5-9.5-5.5-9.5s-3.7-0.2-5.7-0.9C144.7,390.9,142.1,389.4,142.1,389.4z"/>
			<path id="XMLID_413_" class="st2" d="M86.1,142.8c0,0-5.6,6-11.8,38.3s-20.1,74.5-20.1,74.5s2.4,0.7,5.2,0.9c2.9,0.2,5.3,0,5.3,0
				s15.9-27.9,19.2-35.5c3.4-7.6,8-19,9.6-22.8c1.6-3.8,9.4-27.1,10.6-32.8C105.2,159.7,102.1,137.7,86.1,142.8z"/>
			<path id="XMLID_410_" class="st6" d="M133.7,138.3c0,0-2.8,37.4-1.8,51.9s-0.2,18.6,5.5,18.6s-2-71.2-2-71.2L133.7,138.3z"/>
			<path id="XMLID_396_" class="st5" d="M134.1,138.5c0,0-1.8,56.1,2.3,72c4.1,15.9,7.1,20.8,8.9,21.9c1.8,1.1,8.2-15.1,8.8-22.4
				c0.6-7.3-12.9-70.1-13.8-72.4C139.6,135.4,134.1,138.5,134.1,138.5z"/>
			<path id="XMLID_457_" class="st7" d="M133.7,136.7l-1.5,1.4c-6-1.8-12.3-8.6-14.6-11.3c0.6,0,1.2,0.1,1.8,0.1
				C123.8,130.5,133.7,136.7,133.7,136.7z"/>
			<path id="XMLID_455_" class="st7" d="M145.9,127.6c-0.1,1.3-0.8,6-4.5,8.8l-1-1.7c0,0,3.3-4.6,4.2-7
				C145.1,127.7,145.5,127.6,145.9,127.6z"/>
			<path id="XMLID_395_" class="st6" d="M136,129.1c0.4-0.1,1-0.2,1.9-0.1c0.3,0,0.5,0.2,0.6,0.4c0.8,1,3.1,4.2,3.3,6.7
				c0.2,1.5-0.6,2.4-1.5,3c-0.8,0.5-1.8,0.8-2.8,0.7c-1.3,0-3.4-0.2-4.8-0.9c-1.8-0.9,0.9-7.5,1.8-9.1
				C134.8,129.4,135.7,129.2,136,129.1z"/>
			<path id="XMLID_394_" class="st2" d="M133.9,137.6c0,0-4.4-1.6-8.5-4.4c-2.2-1.5-6.9-6.3-6.9-6.3s0.3-1.4,0.9-2.6
				c0.2-0.4,0.8-1.3,1.4-1.7c0.3-0.3,0.7-0.4,1.1-0.3c0,0,6.1,1.5,8.2,2.3c1.4,0.5,5.7,2.3,5.7,2.3c0.4,0.1,0.7,0.5,0.6,0.9
				l-1.5,9.4C134.8,137.6,134.3,137.8,133.9,137.6z"/>
			<path id="XMLID_393_" class="st2" d="M144.3,124.1c0,0,0.6,1,0.8,1.6c0.2,0.8,0.3,1.9,0.3,1.9s-0.3,3.1-1.9,5.3
				c-1,1.3-2.8,3.6-2.8,3.6c-0.2,0.3-0.7,0.2-0.8-0.2l-2.7-8.7c-0.1-0.3,0.1-0.7,0.4-0.8l5.8-3C143.7,123.7,144,123.8,144.3,124.1z"
				/>
			<path id="XMLID_392_" class="st7" d="M128.9,88.8c0,0,0.2-4.8-3.5-4.6c-5,0.3-8.7,12.7,1.5,14.2C126.9,98.4,127.3,93,128.9,88.8z
				"/>
		</g>
	</g>
</g>
<g id="DESIGNED_BY_FREEPIK">
</g>
</svg>
