<?xml version="1.0" encoding="utf-8"?>
<!-- Generator: Adobe Illustrator 20.0.0, SVG Export Plug-In . SVG Version: 6.00 Build 0)  -->
<svg version="1.1" xmlns="http://www.w3.org/2000/svg" xmlns:xlink="http://www.w3.org/1999/xlink" x="0px" y="0px"
	 viewBox="0 0 500 444.3" style="enable-background:new 0 0 500 444.3;" xml:space="preserve">
<style type="text/css">
	.st0{fill:#D0DBFF;}
	.st1{fill:none;stroke:#D0DBFF;stroke-width:4;stroke-linecap:round;stroke-miterlimit:10;}
	.st2{fill:url(#SVGID_1_);}
	.st3{fill:url(#SVGID_2_);}
	.st4{fill:url(#SVGID_3_);}
	.st5{fill:url(#SVGID_4_);}
	.st6{fill:url(#SVGID_5_);}
	.st7{fill:url(#SVGID_6_);}
	.st8{fill:url(#SVGID_7_);}
	.st9{fill:url(#SVGID_8_);}
	.st10{fill:#023DE7;}
	.st11{fill:#F47960;}
	.st12{fill:url(#SVGID_9_);}
	.st13{fill:url(#SVGID_10_);}
	.st14{fill:url(#SVGID_11_);}
	.st15{fill:url(#SVGID_12_);}
	.st16{fill:url(#SVGID_13_);}
	.st17{fill:url(#SVGID_14_);}
	.st18{fill:url(#SVGID_15_);}
	.st19{fill:url(#SVGID_16_);}
	.st20{fill:url(#SVGID_17_);}
	.st21{fill:url(#SVGID_18_);}
	.st22{fill:url(#SVGID_19_);}
	.st23{fill:url(#SVGID_20_);}
	.st24{fill:url(#SVGID_21_);}
	.st25{fill:#003DE6;}
	.st26{fill:url(#SVGID_22_);}
	.st27{fill:url(#SVGID_23_);}
	.st28{fill:url(#SVGID_24_);}
	.st29{fill:url(#SVGID_25_);}
	.st30{fill:#820000;}
	.st31{fill:url(#SVGID_26_);}
	.st32{fill:url(#SVGID_27_);}
	.st33{fill:url(#SVGID_28_);}
	.st34{fill:url(#SVGID_29_);}
	.st35{fill:url(#SVGID_30_);}
	.st36{fill:url(#SVGID_31_);}
	.st37{fill:url(#SVGID_32_);}
	.st38{fill:url(#SVGID_33_);}
	.st39{fill:none;}
</style>
<g id="BACKGROUND">
</g>
<g id="OBJECTS">
	<path class="st0" d="M495.9,44.3l-12.5,10.2l-68.3,67.2l39.8,13.8c-0.3,0.6-0.5,1.3-0.8,1.9c-2.4,5.9-4.9,11.8-7.5,17.6
		c-2.6,5.8-5.3,11.6-8.3,17.1c-11.9,22.3-26.5,43.1-42.3,62.7c-15.9,19.6-33.2,37.9-51.5,55c-9.2,8.5-18.6,16.8-28.3,24.7
		c-2.4,2-4.9,3.9-7.3,5.9l-3.7,2.9l-3.7,2.8c-2.5,1.9-4.9,3.8-7.5,5.6l-3.8,2.8c-1.3,0.9-2.5,1.9-3.7,2.6
		c-18.7,12.8-40.8,21.3-63.8,27.1c-23.1,5.8-47.1,9-71.4,10.5c-24.3,1.5-48.9,1.4-73.4,0.1c-12.3-0.7-24.5-1.6-36.7-2.9
		c-6.1-0.6-12.2-1.3-18.2-2.1c-3-0.4-6-0.8-9-1.2l-4.4-0.7l-2.1-0.3l-1-0.2c-0.2,0-3.7-0.8-6.2-1.3v77.8l0.1,0l2.7,0.1l5.2,0.1
		c3.4,0.1,6.8,0.1,10.2,0.1c6.8,0,13.5-0.1,20.2-0.3c13.4-0.4,26.8-1.1,40.2-2.1c26.7-2.1,53.4-5.5,79.9-10.7
		c26.5-5.2,52.9-12.2,78.6-22.4c6.4-2.6,12.8-5.3,19.1-8.3c6.3-3,12.5-6.3,18.6-9.8c6.1-3.5,12-7.4,17.8-11.5
		c5.8-4.1,11.4-8.6,16.7-13.4c1.4-1.2,2.5-2.3,3.8-3.5l3.6-3.4c2.4-2.2,4.8-4.6,7.1-6.9l3.5-3.5l3.5-3.5c2.3-2.3,4.6-4.7,6.9-7.1
		c9.1-9.5,18-19.2,26.5-29.3c17-20.1,32.6-41.2,46.5-63.3c13.9-22.2,26.2-45.3,35.7-69.6c2.4-6.1,4.4-12.3,6.3-18.5
		c1.9-6.2,3.7-12.4,5.4-18.6c0.2-0.6,0.3-1.3,0.5-1.9l41.5,14.4L495.9,44.3z"/>
	<path class="st1" d="M205.8,179.6c6.8,0.9,14-1,19.5-5.3"/>
	<g>
		<linearGradient id="SVGID_1_" gradientUnits="userSpaceOnUse" x1="14.623" y1="207.972" x2="189.205" y2="207.972">
			<stop  offset="3.745990e-03" style="stop-color:#F47960"/>
			<stop  offset="1" style="stop-color:#F9B776"/>
		</linearGradient>
		<path class="st2" d="M182.8,214.4H21c-3.5,0-6.4-2.9-6.4-6.4l0,0c0-3.5,2.9-6.4,6.4-6.4h161.7c3.5,0,6.4,2.9,6.4,6.4l0,0
			C189.2,211.5,186.3,214.4,182.8,214.4z"/>
		<linearGradient id="SVGID_2_" gradientUnits="userSpaceOnUse" x1="14.623" y1="231.0785" x2="189.205" y2="231.0785">
			<stop  offset="3.745990e-03" style="stop-color:#F47960"/>
			<stop  offset="1" style="stop-color:#F9B776"/>
		</linearGradient>
		<path class="st3" d="M182.8,237.5H21c-3.5,0-6.4-2.9-6.4-6.4l0,0c0-3.5,2.9-6.4,6.4-6.4h161.7c3.5,0,6.4,2.9,6.4,6.4l0,0
			C189.2,234.6,186.3,237.5,182.8,237.5z"/>
		<path class="st0" d="M182.8,224.7H92.9v12.8h89.9c3.5,0,6.4-2.9,6.4-6.4S186.3,224.7,182.8,224.7z"/>
		<linearGradient id="SVGID_3_" gradientUnits="userSpaceOnUse" x1="14.623" y1="255.4686" x2="189.205" y2="255.4686">
			<stop  offset="3.745990e-03" style="stop-color:#F47960"/>
			<stop  offset="1" style="stop-color:#F9B776"/>
		</linearGradient>
		<path class="st4" d="M182.8,261.9H21c-3.5,0-6.4-2.9-6.4-6.4l0,0c0-3.5,2.9-6.4,6.4-6.4h161.7c3.5,0,6.4,2.9,6.4,6.4l0,0
			C189.2,259,186.3,261.9,182.8,261.9z"/>
		<path class="st0" d="M182.8,249.1h-113v12.8h113c3.5,0,6.4-2.9,6.4-6.4C189.2,251.9,186.3,249.1,182.8,249.1z"/>
		<linearGradient id="SVGID_4_" gradientUnits="userSpaceOnUse" x1="14.623" y1="281.1424" x2="189.205" y2="281.1424">
			<stop  offset="3.745990e-03" style="stop-color:#F47960"/>
			<stop  offset="1" style="stop-color:#F9B776"/>
		</linearGradient>
		<path class="st5" d="M182.8,287.6H21c-3.5,0-6.4-2.9-6.4-6.4l0,0c0-3.5,2.9-6.4,6.4-6.4h161.7c3.5,0,6.4,2.9,6.4,6.4l0,0
			C189.2,284.7,186.3,287.6,182.8,287.6z"/>
		<path class="st0" d="M182.8,274.7H44.1v12.8h138.6c3.5,0,6.4-2.9,6.4-6.4C189.2,277.6,186.3,274.7,182.8,274.7z"/>
		<linearGradient id="SVGID_5_" gradientUnits="userSpaceOnUse" x1="14.623" y1="306.8163" x2="189.205" y2="306.8163">
			<stop  offset="3.745990e-03" style="stop-color:#F47960"/>
			<stop  offset="1" style="stop-color:#F9B776"/>
		</linearGradient>
		<path class="st6" d="M182.8,313.2H21c-3.5,0-6.4-2.9-6.4-6.4l0,0c0-3.5,2.9-6.4,6.4-6.4h161.7c3.5,0,6.4,2.9,6.4,6.4l0,0
			C189.2,310.4,186.3,313.2,182.8,313.2z"/>
		<path class="st0" d="M182.8,300.4H44.1v12.8h138.6c3.5,0,6.4-2.9,6.4-6.4C189.2,303.3,186.3,300.4,182.8,300.4z"/>
		<path class="st0" d="M182.8,201.6h-51.3v12.8h51.3c3.5,0,6.4-2.9,6.4-6.4S186.3,201.6,182.8,201.6z"/>
	</g>
	
		<linearGradient id="SVGID_6_" gradientUnits="userSpaceOnUse" x1="247.9449" y1="128.013" x2="121.4958" y2="58.3221" gradientTransform="matrix(0.9829 -0.1842 0.1842 0.9829 62.1534 30.0389)">
		<stop  offset="0" style="stop-color:#FDF53F"/>
		<stop  offset="1" style="stop-color:#D93C65"/>
	</linearGradient>
	<path class="st7" d="M297.7,75.2l-7.3,32.1c12,15.5,23.6,23.1,34.2,25.8c-0.3-11,4.3-21.1,7.9-27.2
		C311.9,109.1,297.7,75.2,297.7,75.2z"/>
	
		<linearGradient id="SVGID_7_" gradientUnits="userSpaceOnUse" x1="310.0408" y1="113.8349" x2="165.3265" y2="183.9387" gradientTransform="matrix(0.9829 -0.1842 0.1842 0.9829 62.1534 30.0389)">
		<stop  offset="0" style="stop-color:#F9B776"/>
		<stop  offset="1" style="stop-color:#F47960"/>
	</linearGradient>
	<path class="st8" d="M374.5,92.6c-17.2,15.1-31.4,17.7-42.2,14c-3.6,6.1-8,15.5-7.7,26.5c33.8,8.5,58.2-33.4,58.2-33.4L374.5,92.6z
		"/>
	
		<linearGradient id="SVGID_8_" gradientUnits="userSpaceOnUse" x1="147.57" y1="100.9311" x2="160.1235" y2="100.9311" gradientTransform="matrix(0.9829 -0.1842 0.1842 0.9829 62.1534 30.0389)">
		<stop  offset="0" style="stop-color:#FDF53F"/>
		<stop  offset="1" style="stop-color:#D93C65"/>
	</linearGradient>
	<path class="st9" d="M226,103.4l11.8-5L226,103.4z"/>
	<path class="st10" d="M297.7,75.2l-7.7-3L297.7,75.2z"/>
	<g>
		<path class="st11" d="M235.2,179.9c-16.2,0-32.1-3.1-44.2-9.3c-38.3-19.6-79.3-34-119.5-7.1l2.1-10.8l-10.7-2
			c46.9-31.4,94.6-14.5,135.1,6.1c18.1,9.2,48.3,10.2,70.2,2.2c9-3.3,18.9-7.9,23.6-19.2l1.3,9c0,0-2.6,18.4-19.6,24.6
			C261.9,177.8,248.5,179.9,235.2,179.9z"/>
	</g>
	<polygon class="st11" points="52,408 52,407.9 52,407.9 	"/>
	<g>
		<path class="st11" d="M288.5,147.9c-15.9-1.7-31.6-6.9-42-14.6c-36.5-27.1-80.7-51.7-132.2-28.6l10.2,3.8l-3.9,10.3
			c44.1-19.8,82.2,1.2,116.7,26.9c10.9,8.1,26,13.8,42,16.5c2.4,0.4,4.9,0.7,7.4,1C286.9,158.5,287.3,152.6,288.5,147.9z"/>
		<g>
			<g>
				
					<linearGradient id="SVGID_9_" gradientUnits="userSpaceOnUse" x1="19.2789" y1="344.0843" x2="41.936" y2="344.0843" gradientTransform="matrix(0.9829 -0.1842 0.1842 0.9829 62.1534 30.0389)">
					<stop  offset="0" style="stop-color:#53D8FF"/>
					<stop  offset="1" style="stop-color:#3840F7"/>
				</linearGradient>
				<path class="st12" d="M142.2,339.9c-1.5,1.3-2,3.6-1.2,5.6c3.1,7.9,12.4,28.7,27.4,39.2c1,0.7,2.2,0.4,2.8-0.5
					c-3.8-2.7-8.8-7.7-15.3-16.5C146,354.3,143,345.4,142.2,339.9z"/>
				
					<linearGradient id="SVGID_10_" gradientUnits="userSpaceOnUse" x1="21.541" y1="342.6598" x2="42.7293" y2="342.6598" gradientTransform="matrix(0.9829 -0.1842 0.1842 0.9829 62.1534 30.0389)">
					<stop  offset="0" style="stop-color:#2B3582"/>
					<stop  offset="1" style="stop-color:#150E42"/>
				</linearGradient>
				<path class="st13" d="M158.4,336.5c0,0-9-2.9-16.2,3.3c0,0,0,0,0,0.1c0.8,5.5,3.9,14.4,13.8,27.9c6.4,8.8,11.5,13.7,15.3,16.5
					c0.2-0.3,0.3-0.6,0.4-1C172.4,374.6,155.4,368.3,158.4,336.5z"/>
				
					<linearGradient id="SVGID_11_" gradientUnits="userSpaceOnUse" x1="28.4421" y1="316.9983" x2="46.1706" y2="316.9983" gradientTransform="matrix(0.9829 -0.1842 0.1842 0.9829 62.1534 30.0389)">
					<stop  offset="0" style="stop-color:#F9B776"/>
					<stop  offset="1" style="stop-color:#F47960"/>
				</linearGradient>
				<path class="st14" d="M165,334.5l-6,8.5c-1.1,1.5-3,2.1-4.7,1.4c-1.5-0.6-3.2-1.8-4.6-3.9c-0.8-1.3-0.9-2.9-0.1-4.2l5.8-9.5
					c1.4-2.3,4.6-2.5,6.3-0.5l3,3.5C165.9,331,166,333.1,165,334.5z"/>
				<g>
					<g>
						<path class="st0" d="M160.7,359.7c-0.3,0-0.5-0.2-0.6-0.5c-0.3-0.9-1-1.6-2-1.9c-1-0.3-2-0.2-2.7,0.3
							c-0.3,0.2-0.7,0.1-0.9-0.2c-0.2-0.3-0.1-0.7,0.2-0.9c1.1-0.7,2.5-0.9,3.9-0.4c1.4,0.5,2.4,1.5,2.8,2.7
							c0.1,0.3-0.1,0.7-0.4,0.8C160.9,359.7,160.8,359.7,160.7,359.7z"/>
					</g>
					<g>
						<path class="st0" d="M163.6,366.5c-0.2,0-0.5-0.1-0.6-0.4c-0.7-1.5-2.7-2.4-4.3-1.8c-0.3,0.1-0.7,0-0.8-0.4
							c-0.1-0.3,0-0.7,0.4-0.8c2.2-0.9,5,0.2,6,2.4c0.1,0.3,0,0.7-0.3,0.8C163.8,366.5,163.7,366.5,163.6,366.5z"/>
					</g>
				</g>
			</g>
			
				<linearGradient id="SVGID_12_" gradientUnits="userSpaceOnUse" x1="34.1846" y1="252.1441" x2="165.4097" y2="252.1441" gradientTransform="matrix(0.9829 -0.1842 0.1842 0.9829 62.1534 30.0389)">
				<stop  offset="0.12" style="stop-color:#021E9E"/>
				<stop  offset="0.5311" style="stop-color:#001FA9"/>
				<stop  offset="1" style="stop-color:#201600"/>
			</linearGradient>
			<path class="st15" d="M214.9,187.8c0,0-5.4,54-10.9,78.4c0,0-16.5,5.8-25.9,13.9c-9.4,8.1-25.6,46.4-25.6,46.4s8,10.1,15.5,10.5
				l56.1-56.8l40.2-69.5l-7.6-27.3L214.9,187.8z"/>
		</g>
		<g>
			<g>
				
					<linearGradient id="SVGID_13_" gradientUnits="userSpaceOnUse" x1="287.3864" y1="261.449" x2="321.3477" y2="261.449" gradientTransform="matrix(0.9829 -0.1842 0.1842 0.9829 62.1534 30.0389)">
					<stop  offset="0" style="stop-color:#53D8FF"/>
					<stop  offset="1" style="stop-color:#3840F7"/>
				</linearGradient>
				<path class="st16" d="M396.6,254.4c1.9,0.6,4.1-0.1,5.5-1.8c5.4-6.6,18.8-25,20.5-43.2c0.1-1.2-0.7-2.1-1.8-2.2
					c-0.5,4.7-2.3,11.5-6.8,21.4C407.2,243.9,400.9,251,396.6,254.4z"/>
				
					<linearGradient id="SVGID_14_" gradientUnits="userSpaceOnUse" x1="278.9211" y1="261.1317" x2="319.8723" y2="261.1317" gradientTransform="matrix(0.9829 -0.1842 0.1842 0.9829 62.1534 30.0389)">
					<stop  offset="0" style="stop-color:#2B3582"/>
					<stop  offset="1" style="stop-color:#150E42"/>
				</linearGradient>
				<path class="st17" d="M385.6,241.9c0,0,1.9,9.2,10.9,12.4c0,0,0,0,0.1,0c4.3-3.4,10.6-10.5,17.4-25.7c4.5-9.9,6.3-16.8,6.8-21.4
					c-0.3,0-0.7,0-1.1,0.2c-5.7,2.6-17.6,20.6-28.8,24C385.9,232.9,389.7,239.2,385.6,241.9z"/>
				
					<linearGradient id="SVGID_15_" gradientUnits="userSpaceOnUse" x1="268.0643" y1="259.9463" x2="287.5424" y2="259.9463" gradientTransform="matrix(0.9829 -0.1842 0.1842 0.9829 62.1534 30.0389)">
					<stop  offset="0" style="stop-color:#F9B776"/>
					<stop  offset="1" style="stop-color:#F47960"/>
				</linearGradient>
				<path class="st18" d="M382.2,226.7l9,5.3c1.6,0.9,2.3,2.8,1.8,4.6c-0.5,1.5-1.5,3.4-3.5,4.9c-1.2,1-2.9,1.1-4.2,0.4l-10-5
					c-2.4-1.2-2.9-4.3-1.1-6.3l3.2-3.3C378.6,226.1,380.6,225.8,382.2,226.7z"/>
				<g>
					<path class="st0" d="M406.8,233.6c-0.2,0-0.3-0.1-0.4-0.2c-2.9-2.8-5.3-5.4-5.3-9.4c0-0.4,0.3-0.6,0.6-0.6
						c0.4,0,0.6,0.3,0.6,0.6c0,3.5,2.1,5.8,4.9,8.5c0.3,0.2,0.3,0.7,0,0.9C407.1,233.6,407,233.6,406.8,233.6z"/>
				</g>
				<g>
					<path class="st0" d="M410.6,228c0,0-0.1,0-0.1,0c-1.8-0.4-3.4-1.6-4.4-3.4c-1-1.7-1.2-3.7-0.7-5.5c0.1-0.3,0.5-0.5,0.8-0.4
						c0.3,0.1,0.5,0.5,0.4,0.8c-0.4,1.4-0.2,3,0.6,4.4c0.8,1.4,2.1,2.4,3.5,2.7c0.3,0.1,0.6,0.4,0.5,0.8
						C411.2,227.8,410.9,228,410.6,228z"/>
				</g>
			</g>
			
				<linearGradient id="SVGID_16_" gradientUnits="userSpaceOnUse" x1="117.5526" y1="220.8966" x2="278.9206" y2="220.8966" gradientTransform="matrix(0.9829 -0.1842 0.1842 0.9829 62.1534 30.0389)">
				<stop  offset="0.12" style="stop-color:#021E9E"/>
				<stop  offset="0.5311" style="stop-color:#001FA9"/>
				<stop  offset="1" style="stop-color:#201600"/>
			</linearGradient>
			<path class="st19" d="M215,183.4l-1.8,14.8c0,0,10.9,36,56.1,21.1c45.2-14.9,49.6-23.5,49.6-23.5s0.4,24.2,56.4,43
				c0,0,6.6-7.3,7.1-14.2l-46.5-51.9c-6.4-6.8-11.3-7.9-20.1-4.8c-19.4,6.9-55.9,17.9-61.8,18L215,183.4z"/>
		</g>
		
			<linearGradient id="SVGID_17_" gradientUnits="userSpaceOnUse" x1="299.958" y1="67.6753" x2="177.2516" y2="215.8328" gradientTransform="matrix(0.9829 -0.1842 0.1842 0.9829 -34.6363 48.1806)">
			<stop  offset="0" style="stop-color:#FDF53F"/>
			<stop  offset="1" style="stop-color:#D93C65"/>
		</linearGradient>
		<path class="st20" d="M231.7,72.4c-13.4,3.2-33.5,13.6-44.9,28.9c5.1,3.9,13.1,10.3,19.3,16.9c3.6-4.9,11.4-11.3,19.8-15.2
			c0.6,31.2-8.4,60.4-14.6,87.6c-0.4,1.7,0.7,3.4,2.5,3.6c9,1.4,35.3,3.7,53.2-11.4l32.5-71.9c3.5-7.7,5.2-16.2,4.9-24.6l-6.5-11.2
			C297.7,75.2,260.9,65.3,231.7,72.4z"/>
		
			<linearGradient id="SVGID_18_" gradientUnits="userSpaceOnUse" x1="177.2735" y1="174.1978" x2="292.1887" y2="86.8991" gradientTransform="matrix(0.9829 -0.1842 0.1842 0.9829 -34.6363 48.1806)">
			<stop  offset="0" style="stop-color:#001FA9"/>
			<stop  offset="1" style="stop-color:#2F78FA"/>
		</linearGradient>
		<path class="st21" d="M253.4,68.6c-2.6,0.8-3.9,4-3.3,6.7c0.6,2.6,2.9,4.7,5.3,5.8c2.5,1.1,7.9,1.8,7.9,1.8s8.5,87.9-50.1,123.7
			c-8.6,5.3-42.3-23.4-42.3-23.4s34.8-2.6,45.3-22.4c5.5-10.3,7.9-49,7.9-49S179,136.2,199.5,172c1.3,2.3-14.1,5.1-14.1,5.1
			s-24.7-41.7-0.3-75.7C208.4,69,253.4,68.6,253.4,68.6z"/>
		<g>
			
				<linearGradient id="SVGID_19_" gradientUnits="userSpaceOnUse" x1="184.7968" y1="95.8176" x2="193.81" y2="70.1131" gradientTransform="matrix(0.9829 -0.1842 0.1842 0.9829 62.1534 30.0389)">
				<stop  offset="0" style="stop-color:#F9B776"/>
				<stop  offset="1" style="stop-color:#F47960"/>
			</linearGradient>
			<path class="st22" d="M258.5,49.9l-7.3,24.9c-0.4,1.5,0.1,3.2,1.3,4.1c3.4,2.6,11,6.4,21.8,0.6c1.2-0.6,1.9-1.9,1.8-3.3L275.3,55
				L258.5,49.9z"/>
			
				<linearGradient id="SVGID_20_" gradientUnits="userSpaceOnUse" x1="210.4659" y1="42.8245" x2="170.9155" y2="73.0866" gradientTransform="matrix(0.9829 -0.1842 0.1842 0.9829 62.1534 30.0389)">
				<stop  offset="0" style="stop-color:#F9B776"/>
				<stop  offset="1" style="stop-color:#F47960"/>
			</linearGradient>
			<path class="st23" d="M272.9,19.9c0,0,9.7,14.3,11.7,22.5c2,8.1,4.8,13.1-4.4,16.5c-9.2,3.4-18,0.2-23.9-7.2
				c0,0-9.1-11.3-8.6-16.8C248.3,29.5,272.9,19.9,272.9,19.9z"/>
			
				<linearGradient id="SVGID_21_" gradientUnits="userSpaceOnUse" x1="310.9302" y1="46.2428" x2="318.2384" y2="46.2428" gradientTransform="matrix(0.9829 -0.1842 0.1842 0.9829 -34.6363 48.1806)">
				<stop  offset="0" style="stop-color:#F9B776"/>
				<stop  offset="0.9972" style="stop-color:#F47960"/>
			</linearGradient>
			<path class="st24" d="M278.7,29.6c2.7,3.3,5.6,6.4,8.7,9.3c-2,1.4-4,2.7-6,4.1c-1-3.9-1.9-7.8-2.9-11.8"/>
			<path class="st25" d="M278,6c-1.4-1.8-3.3-3.1-5.3-3.6c-0.1,0-0.2,0-0.4,0c-0.5-0.1-0.9-0.2-1.4-0.3c-5.6-0.9-11.6,2.7-13.5,8.1
				c-0.3,0.8-0.4,1.7-0.5,2.6c-10.7,4.3-17.1,10.4-15.8,18.2c0.1,0.5-0.4,0.9-0.9,0.7c-1-0.4-2.4-0.4-3.9,1.5
				c-2.7,3.3-0.1,10.1,8,14.5c0.4,0.2,0.5,0.7,0.2,1c-1.1,1.1-2.7,3.4,2.8,5.1c5.6,1.8,9.4,0.8,10.8,0.3c0.4-0.1,0.5-0.5,0.4-0.9
				l-2.9-6.8c-0.2-0.4,0.1-0.8,0.5-0.9l2.4-0.5l0.5-0.3c0.6-0.4,0.8-1.3,0.3-1.9c-1.8-2.3-5.5-7.8-2.4-9.8c4-2.6,20.5-9.3,23.1-16.1
				c0.5-1.4,0.7-2.7,0.7-4.1C280.6,13,279.9,8.1,278,6z"/>
			
				<linearGradient id="SVGID_22_" gradientUnits="userSpaceOnUse" x1="205.56" y1="36.4135" x2="166.0099" y2="66.6754" gradientTransform="matrix(0.9829 -0.1842 0.1842 0.9829 62.1534 30.0389)">
				<stop  offset="0" style="stop-color:#F9B776"/>
				<stop  offset="1" style="stop-color:#F47960"/>
			</linearGradient>
			<path class="st26" d="M259,46.7c0,0-4.5-9.5-8.4-5.9c-3.9,3.6,4.4,10.7,8.1,10.4L259,46.7z"/>
		</g>
		<g>
			
				<linearGradient id="SVGID_23_" gradientUnits="userSpaceOnUse" x1="280.5984" y1="134.58" x2="387.1421" y2="134.58" gradientTransform="matrix(0.9829 -0.1842 0.1842 0.9829 -34.6363 48.1806)">
				<stop  offset="0" style="stop-color:#001FA9"/>
				<stop  offset="1" style="stop-color:#2F78FA"/>
			</linearGradient>
			<path class="st27" d="M297.7,75.2c5,5.6,21.5,28.8,34.6,31.4c20.3,4,28.8-6.7,28.8-6.7l10.4,13.7c0,0-23.1,37-62.8,13.1
				c-6.3-3.8-10.7-8.4-10.7-8.4s-6.8,19.6-7.7,35.4c-0.9,15.8,2.8,21.9,2.8,21.9l-17,6.9c0,0,5.7-32.3,7.5-57.6
				c1.8-25.2,0.9-30.2-7-44.4l2.1-9.5"/>
			<g>
				<path class="st0" d="M373.2,118.6c-0.8,0-1.6-0.4-2.1-1.1c-4.5-6.6-7.4-9.9-9.4-12.2c-0.9-1-1.7-1.9-2.4-2.8
					c-0.9-1.1-0.6-2.7,0.5-3.6c1.1-0.9,2.7-0.6,3.6,0.5c0.6,0.8,1.3,1.6,2.2,2.6c2.2,2.5,5.2,5.9,9.8,12.7c0.8,1.2,0.5,2.8-0.7,3.6
					C374.2,118.5,373.7,118.6,373.2,118.6z"/>
			</g>
			
				<linearGradient id="SVGID_24_" gradientUnits="userSpaceOnUse" x1="395.074" y1="176.8767" x2="430.2179" y2="176.8767" gradientTransform="matrix(0.685 -0.7285 0.7285 0.685 -28.4726 262.4737)">
				<stop  offset="0" style="stop-color:#F9B776"/>
				<stop  offset="1" style="stop-color:#F47960"/>
			</linearGradient>
			<path class="st28" d="M374.6,70.7c1.6,0.2,2.8,1.6,3.4,3c0.6,1.5,0.7,3.1,0.8,4.7c0.1,2.4,0.3,4.8,0.4,7.2c2.7-3.3,5.9-6.1,9.7-8
				c3.8-1.8,8.2-2.6,12.3-1.5c-4,3.3-8.4,6-13.1,8c3.9-3.2,9.1-4.6,14-3.9c-3.4,2.5-7.2,4.4-11.2,5.6c2.3-0.7,4.6-1.5,7-2.2
				c1.1-0.3,2.5-0.5,3,0.5c-3.9,2.2-7.9,4.3-11.8,6.5c3-1.2,5.9-2.5,8.9-3.7c0.6,1.1-0.7,2.3-1.8,2.9c-6.3,3.8-12.1,8.4-17.3,13.6
				c-3.9-5.8-6.7-6.3-5.7-13.3C373.7,88.5,375.5,70.9,374.6,70.7z"/>
		</g>
		<linearGradient id="SVGID_25_" gradientUnits="userSpaceOnUse" x1="62.9551" y1="156.6485" x2="293.1839" y2="156.6485">
			<stop  offset="6.610600e-04" style="stop-color:#F47960"/>
			<stop  offset="0.9985" style="stop-color:#FF1D25"/>
		</linearGradient>
		<path class="st29" d="M235.2,179.9c-16.2,0-32.1-3.1-44.2-9.3c-38.3-19.6-79.3-34-119.5-7.1l2.1-10.8l-10.7-2
			c46.9-31.4,94.6-14.5,135.1,6.1c18.1,9.2,48.3,10.2,70.2,2.2c9-3.3,18.9-7.9,23.6-19.2l1.3,9c0,0-2.6,18.4-19.6,24.6
			C261.9,177.8,248.5,179.9,235.2,179.9z"/>
		<g>
			<polygon class="st30" points="225.8,273.7 123,245 130.4,218.5 233.2,247.2 225.8,273.7 			"/>
			<g>
				<path class="st11" d="M234.9,222.3l-93.2-26l-0.7-0.2c-4.9-1.4-10,1.5-11.3,6.4l-4.1,14.6c-1,3.5,0.1,6.3,2.7,8.6
					c1,1,2.3,1.8,3.7,2.7l44.9,21.8l49.7,4.5c1.6-0.1,3.2-0.2,4.6-0.5l6.3-22.7C238.5,228.1,237.4,224.6,234.9,222.3z"/>
				<g>
					<linearGradient id="SVGID_26_" gradientUnits="userSpaceOnUse" x1="117.8217" y1="262.3422" x2="230.8493" y2="262.3422">
						<stop  offset="6.610600e-04" style="stop-color:#F47960"/>
						<stop  offset="0.9985" style="stop-color:#FF1D25"/>
					</linearGradient>
					<path class="st31" d="M176.5,251.7l-44.9-21.8c-1.4-0.8-2.7-1.7-3.7-2.7l-9.8,35c-1.4,4.9,1.5,10,6.4,11.3l85.1,23.7
						c4.9,1.4,10-1.5,11.3-6.4l9.8-35.2c-1.4,0.3-3,0.5-4.6,0.5L176.5,251.7L176.5,251.7z"/>
					<linearGradient id="SVGID_27_" gradientUnits="userSpaceOnUse" x1="165.4974" y1="251.0902" x2="233.0537" y2="251.0902">
						<stop  offset="0" style="stop-color:#FDF53F"/>
						<stop  offset="1" style="stop-color:#D93C65"/>
					</linearGradient>
					<polygon class="st32" points="182.1,263.8 165.5,259.2 171.3,238.4 187.9,243 182.1,263.8 					"/>
					<linearGradient id="SVGID_28_" gradientUnits="userSpaceOnUse" x1="169.7427" y1="251.1544" x2="211.1156" y2="251.1544">
						<stop  offset="3.745990e-03" style="stop-color:#F47960"/>
						<stop  offset="1" style="stop-color:#F9B776"/>
					</linearGradient>
					<polygon class="st33" points="179.9,259 169.7,256.1 173.3,243.4 183.4,246.2 179.9,259 					"/>
					<linearGradient id="SVGID_29_" gradientUnits="userSpaceOnUse" x1="167.4409" y1="203.4491" x2="174.3912" y2="203.4491">
						<stop  offset="6.610600e-04" style="stop-color:#F47960"/>
						<stop  offset="0.9985" style="stop-color:#FF1D25"/>
					</linearGradient>
					<polygon class="st34" points="173.9,205.3 167.4,203.5 168,201.6 174.4,203.4 173.9,205.3 					"/>
					<linearGradient id="SVGID_30_" gradientUnits="userSpaceOnUse" x1="202.6508" y1="213.2599" x2="209.6014" y2="213.2599">
						<stop  offset="6.610600e-04" style="stop-color:#F47960"/>
						<stop  offset="0.9985" style="stop-color:#FF1D25"/>
					</linearGradient>
					<polygon class="st35" points="209.1,215.1 202.7,213.3 203.2,211.4 209.6,213.2 209.1,215.1 					"/>
					<linearGradient id="SVGID_31_" gradientUnits="userSpaceOnUse" x1="168.671" y1="203.2631" x2="209.0563" y2="203.2631">
						<stop  offset="6.610600e-04" style="stop-color:#F47960"/>
						<stop  offset="0.9985" style="stop-color:#FF1D25"/>
					</linearGradient>
					<path class="st36" d="M192.2,194.7c-11.1-3.1-21.6,0.1-23.6,7.1l5,1.4c1.5-5.3,9.4-7.7,17.7-5.4c8.3,2.3,13.9,8.5,12.4,13.8
						l5,1.4C210.7,206,203.3,197.8,192.2,194.7L192.2,194.7z"/>
				</g>
			</g>
		</g>
		<g>
			<g>
				<path class="st0" d="M264,86.4c-0.1,0-0.2,0-0.3,0c-4.1-0.4-9.2-1-13.1-4.2c-2.3-1.8-4.9-5.4-4.8-9.5c0-2.6,1.2-4.9,3.4-6.5
					c1.1-0.9,2.7-0.6,3.6,0.5c0.9,1.1,0.6,2.7-0.5,3.6c-0.9,0.7-1.4,1.5-1.4,2.5c0,2,1.5,4.2,2.9,5.4c2.6,2.1,6.1,2.6,10.4,3.1
					c1.4,0.2,2.4,1.4,2.3,2.8C266.4,85.4,265.3,86.4,264,86.4z"/>
			</g>
			<g>
				<path class="st0" d="M275.7,83.6c-0.6,0-1.1-0.2-1.6-0.5c-1.1-0.9-1.3-2.5-0.4-3.6c1.6-2,2.3-4.9,1.7-7.4c-0.3-1.4,0.6-2.8,2-3
					c1.4-0.3,2.8,0.6,3,2c0.9,4-0.1,8.4-2.7,11.6C277.2,83.2,276.4,83.6,275.7,83.6z"/>
			</g>
		</g>
		<g>
			
				<linearGradient id="SVGID_32_" gradientUnits="userSpaceOnUse" x1="168.0412" y1="138.328" x2="201.1691" y2="138.328" gradientTransform="matrix(0.2801 0.96 -0.96 0.2801 282.8492 -29.9329)">
				<stop  offset="0" style="stop-color:#F9B776"/>
				<stop  offset="1" style="stop-color:#F47960"/>
			</linearGradient>
			<path class="st37" d="M217,185.9c-1,1.2-2.8,1.6-4.3,1.4c-1.6-0.2-3-0.9-4.5-1.7c-2.1-1.1-4.3-2.2-6.4-3.3
				c1.4,4,2.3,8.2,1.9,12.4c-0.3,3.2-0.8,5.8-2.4,8.2c-0.6,1-2.1,0.6-2.3-0.5c-0.6-3.9-1.1-7.5-0.5-11.7c0.8,4.9,0.6,12.4-2.9,11.9
				c-1.9-0.3-1-6.3-0.1-10.4c-0.5,2.4-1.1,4.7-1.6,7.1c-0.3,1.1-1,0.8-2.2,0.7c-1.5-1.7,0.5-7.3,0.6-11.8c-0.4,3.2-0.9,6.4-1.3,9.5
				c-1.3-0.1-1.6-1.7-1.6-3c-0.1-7.4-1.1-14.7-3-21.8c7-0.4,8.8-2.6,14.3,1.9C202.1,176.1,216.4,186.7,217,185.9z"/>
			<g>
				<linearGradient id="SVGID_33_" gradientUnits="userSpaceOnUse" x1="187.5241" y1="162.9804" x2="180.7847" y2="77.2942">
					<stop  offset="6.144080e-02" style="stop-color:#001FA9"/>
					<stop  offset="1" style="stop-color:#2F78FA"/>
				</linearGradient>
				<path class="st38" d="M199.5,172c-6.6-11.6-6.4-22-3-30.7c-5.3-1.2-10.5-2.7-15.6-4.5c-2.2-0.8-4.4-1.6-6.5-1.7
					c-0.3,22.9,11,42.1,11,42.1S200.8,174.3,199.5,172z"/>
			</g>
			<g>
				<path class="st0" d="M185.6,179.2c-1.4,0-2.5-1.1-2.6-2.4c-0.1-1.4,1-2.6,2.4-2.7c4.1-0.2,8.1-1.9,11.2-4.6
					c1.1-0.9,2.7-0.9,3.6,0.2c0.9,1.1,0.9,2.7-0.2,3.6c-3.9,3.5-9,5.6-14.3,5.9C185.7,179.2,185.7,179.2,185.6,179.2z"/>
			</g>
		</g>
	</g>
</g>
<g id="DESIGNED_BY_FREEPIK">
	<rect x="0.5" y="0.5" class="st39" width="500" height="500"/>
</g>
</svg>
